<?xml version="1.0" encoding="utf-8"?>
<svg version="1.1" id="textureBackground" xmlns="http://www.w3.org/2000/svg" xmlns:xlink="http://www.w3.org/1999/xlink" x="0px" y="0px" viewBox="0 0 5019.1835938 210.7167664" xml:space="preserve">
	<path class="texture-fill" d="M5006.949707,29.5070763c0,53.330761,0,106.6615295,0,159.9956665
	c-1666.666748,0.0033875-3333.3334961,0.0033875-5000-0.0007324c0-56.3345184,0-112.6649399,0-168.9953461
	c3.4061089-0.6447315,6.7948008-1.4103775,10.2226505-1.9041615c4.4778385-0.6450386,8.9866657-1.0749245,14.6217442-1.7298107
	c0.7825298,0.1541462,2.9653835,1.0516415,5.0746937,0.9032974c4.5327263-0.3187752,9.0717621-1.887785,13.5253105-1.6109962
	c4.3458099,0.2700958,8.3509865,0.5442104,12.8244324-0.1923332c4.9076805-0.8080397,10.2641716,0.3767338,15.5067711-0.1070299
	c2.4811096-0.2289457,5.129158,1.3514338,7.8440628,2.1541986c0.1582794-0.9252243,0.3659515-2.1391687,0.488739-2.8569422
	c3.1945267,0,6.1614838-0.6547461,8.680687,0.129303c6.230896,1.9392385,12.3176956,2.3343019,18.6212158,0.6383734
	c1.600296-0.4305525,3.4024124-0.400775,5.0688858-0.2092094c1.4930344,0.1716328,3.1016693,1.5280266,4.3572159,1.2011776
	c5.8388062-1.519989,11.873291,2.0081139,17.6584473-0.8181667c0.4396515-0.2147865,1.7033997,1.2574711,2.8497162,2.1530628
	c1.8122101-2.0031834,4.4302216-1.2234573,7.5718689-1.203661c6.9436951,0.0437546,13.9587708,1.6461182,20.9250031,0.1047649
	c0.6807556-0.1506233,1.5206146,0.5645866,2.3157501,0.758255c2.9824066,0.726408,6.9884186,2.9626141,8.7754517,1.8033943
	c5.1687012-3.3528595,10.0820923-0.1697865,15.0378418-0.7292747c4.5415192-0.5127201,9.2789154,0.7095814,14.1668549,1.1907024
	c1.2920837,0.0726299,2.7790833,0.282795,4.2502594,0.2025604c1.4095764-0.0768833,2.8321686-0.7754211,4.1983032-0.6496067
	c9.425766,0.8680363,18.8362122,1.9009647,28.2564392,2.8318062c2.3222504,0.2294712,4.6612396,0.3063679,6.9946442,0.4024944
	c3.5222168,0.1451187,7.0473328,0.2216072,10.5690918,0.3759823c1.5381775,0.0674286,3.0705566,0.3634319,4.6064148,0.3705807
	c8.2109375,0.0382442,16.4221497,0.0180378,24.5559082,0.0180378c-0.1039429-0.4091454-0.2851257-1.1223164-0.3693542-1.4538708
	c2.4155273,0.3991795,4.8482056,0.2276669,6.6498413,1.2116489c4.5302124,2.4742527,9.4001465-4.4665108,13.6225891,0.7369785
	c0.0214233,0.0264111,0.275177-0.2015877,0.4178467-0.1982689c7.2591553,0.1690788,14.5430298-2.4044113,21.8279724,0.5042458
	c1.3883667,0.5543194,3.4884338-0.6197109,5.2420654-1.0671844c0.5422974-0.1383762,1.056366-0.7887974,1.5297852-0.7348118
	c5.9559326,0.6791801,11.8966675,1.4925404,17.8534546,2.163435c2.2625427,0.2548256,4.6488342,0.6813526,6.8147278,0.2345886
	c3.5021973-0.7224178,6.8300781-2.8156681,10.3035278-3.0041389c3.5038147-0.1901207,7.0799561,1.3277473,10.6542969,1.9153557
	c1.9930725,0.327652,4.8120728,1.1886101,5.931366,0.2410316c3.4815979-2.9475079,6.1663513-0.444128,9.1883545,0.3379974
	c0.9559631,0.247406,2.1600342,0.2857914,3.0484009-0.0762444c6.0680237-2.4729176,12.4716187-2.423317,18.4385071-0.8066235
	c4.6561584,1.2615471,9.0170288-0.0815773,13.4963684,0.4006176c1.2642212,0.1360912,2.7305908-1.605854,4.104248-2.4864368
	c-0.0397644,0.4550991-0.0795593,0.9101944-0.1193237,1.3652916c6.0743103,0.4982605,12.1486206,0.9965248,18.5638428,1.5227528
	c-0.0072327,0.0203781,0.2823792-0.7950153,0.5879517-1.6553268c1.3349915,1.3959808,2.5304565,2.6460495,4.0766296,4.2628479
	c0.6704102-1.2581215,0.9214172-2.0795212,1.4503784-2.6373425c0.7374573-0.7776299,1.6827393-1.3581734,2.7760925-2.2070942
	c0.7914734,1.4193535,1.4602966,2.6186962,2.1288147,3.8175735c5.9709778-3.8587704,5.9709778-3.8587704,7.3633423-1.468008
	c7.9632568,0,15.2204895,0,22.4776917,0c0.0391846,0.1383038,0.0783691,0.2766075,0.1175537,0.4149151
	c-1.4972839,0.3989677-2.9945374,0.7979393-4.4917908,1.1969051c0.10495,0.4424267,0.2098999,0.8848476,0.3148499,1.3272743
	c1.5521545-0.320343,3.1010132-0.6579208,4.6572876-0.9567471c2.0296021-0.3896961,4.3121033-1.5290623,6.0528259-0.9780102
	c5.7678528,1.8258991,12.1406555-0.8248634,17.6210022,2.6106606c0.4855347,0.304388,1.6061401,0.3684711,1.9252319,0.0448055
	c2.8493042-2.8901424,6.2028198-0.0856323,9.3827515-0.8690853c3.3330078-0.8211575,7.1408691,0.4304676,10.748291,0.5385914
	c3.923645,0.1176052,7.9151001-0.4847622,11.7699585,0.0291958c5.9013062,0.7867985,11.6934814,2.368288,17.5777588,3.3328133
	c0.9299927,0.1524372,2.100647-1.1637459,3.2199097-1.8369484c1.2143555,0.9462738,2.4512329,1.9101353,3.8892822,3.0307808
	c0.4746704-1.2166576,0.8029175-2.0579128,1.142334-2.9278717c1.239624,0.8239365,3.1436157,2.457592,3.4192505,2.2179432
	c4.7616577-4.1393719,9.3445435,2.1859531,14.1722412,0.0747986c2.0745239-0.9071579,4.8815308-0.5402737,7.2784424-0.2028179
	c2.7393188,0.3856621,5.46875,1.1812592,8.0644531,2.1635208c3.5058594,1.326664,6.8110962-0.8028221,10.6488037,0.3184395
	c6.5264282,1.9068222,13.6069336,1.9384575,20.4622803,2.6886139c3.2593994,0.3566551,8.5148926-0.556366,9.4119263,1.0431328
	c2.1689453,3.86763,4.7133179,1.0429382,6.8630371,1.6358147c2.4840698,0.6851196,5.3024902,1.0671425,7.7927246,0.6016502
	c3.4973755-0.6537399,6.8746948-2.6329613,9.7001343,1.2486496c0.0230713,0.0317154,0.3358154-0.0690804,0.4307861-0.1791992
	c4.0032959-4.6424904,5.5770264-1.3582726,6.7716064,2.4022446c3.9302979-1.0730972,7.4735107-2.5718918,11.1186523-2.8854065
	c3.6029663-0.3098907,7.3088379,0.5776482,11.4089355,0.9833946c0.0181274,0.1054192,0.2225342,1.2929077,0.199646,1.1597557
	c4.1984863,0.5309677,7.6447144,1.3192825,11.0825195,1.283905c2.5018311-0.0257492,5.3049316-2.152729,7.4068604-1.5045853
	c2.4827881,0.7655792,4.286438,0.4088516,6.6255493,0.0460129c2.8700562-0.4452019,6.2260742,1.4239464,8.8934937,0.6478271
	c7.3848877-2.1487122,14.7235107,1.3486595,22.0430298-0.5468407c2.848999-0.7377968,6.0241699-1.0489731,8.9121704-0.6204872
	c5.1469116,0.7636223,10.2180786,4.4291229,15.229248-0.320858c0.0951538-0.09021,0.3964233-0.1362419,0.4475098-0.0748062
	c2.8287964,3.4041977,5.7536621,4.5453453,8.9401245,0.4306679c3.6751709,3.3588676,6.9182129,0.6210861,10.3272095-0.6268272
	c0.7131348-0.2610626,1.7244873,0.2926064,2.8899536,0.5302658c-0.9264526,1.3466148-1.5785522,2.2945709-2.3356323,3.3950348
	c5.2304688,1.0003281,5.710083,0.6295967,5.8371582-4.6246033c1.9768677,1.0062752,3.7496948,1.90868,5.522522,2.8110886
	c-0.3805542-0.3154373-0.7611084-0.6308784-1.1417236-0.9463158c1.3682861-1.1924019,2.7365723-2.3848038,4.1048584-3.5772057
	c0.2360229,0.5426559,0.4720459,1.0853119,0.7080688,1.6279678c2.1109619,0.575428,4.6417847,2.1876831,6.2550659,1.5342445
	c5.0841064-2.0592155,9.8239746-4.9685326,15.125061-7.775444c0,0.9756889,0,2.4202347,0,4.7234116
	c1.5741577-1.5295486,2.9102173-2.8276939,4.6566162-4.5245857c1.1107178,1.398201,2.2352295,4.1680374,3.7184448,4.375721
	c2.4598389,0.344429,5.1468506-0.9751892,7.7489624-1.5444221c0.2694092-0.0589409,0.696228,0.4020996,0.9067993,0.306469
	c1.3845215-0.6287308,3.1351318-1.0141525,4.0126953-2.0923347c2.7589111-3.3897133,4.335083-2.295723,5.1680298,0.1146317
	c7.3423462,0.6720581,14.1237183,1.2927666,21.4486694,1.9632301c-0.3108521,0.244976-0.0144043,0.085144,0.1826782-0.1559105
	c1.2683716-1.5514908,10.9574585-1.1556168,11.4859009,0.3864861c-1.1065063,0.4697571-2.2077026,0.9372482-3.3088989,1.4047394
	c0.0852051,0.5912437,0.1703491,1.1824875,0.2555542,1.7737312c6.1801758-5.8203888,12.8303833-3.3406792,19.2828369-2.0898514
	c0.3481445-1.1677666,0.5701294-1.9123154,0.9041138-3.0325089c4.1907959,6.0571632,7.9902344,5.9511986,12.0917358-0.0881004
	c0,1.7677498,0,2.9237213,0,2.9613571c4.2512817-0.1417198,8.7817993-1.58041,11.9985352-0.1216202
	c5.9856567,2.7144814,7.1904907,3.2216225,10.7019653-1.6394958c1.621521,2.7570686,7.1712036,3.0430832,10.307373,0.5633507
	c4.1907959,5.4261169,8.0458374-1.2537766,12.1422729-0.3722992c-1.0032349,1.0651474-1.9643555,2.0855484-2.9254761,3.1059494
	c2.15625,0.1847343,3.7817993-0.986805,5.3419189-0.9054337c1.5739136,0.0820885,3.0203247,1.587719,4.6342773,2.1486626
	c2.9110107,1.0118065,4.9325562-2.5868301,8.3889771-1.438221c2.0860596,0.6931915,6.3126221-2.5955467,7.357605-1.6476288
	c4.9973755,4.5330429,11.0731812-4.438488,15.5369873,1.6741371c0.1783447,0.2441559,1.4951172-0.4416847,2.2999268-0.5342979
	c1.3127441-0.1510658,2.6398926-0.2150116,3.9622803-0.2350426c2.331665-0.0353203,4.6641846-0.0098839,6.9963379-0.0098839
	c1.7590332-0.089016,3.6481934,1.4938698,5.2833252,1.2647781c7.4804688-1.0480957,14.8481445,0.7115593,22.2252197,0.4120293
	c3.5450439-0.14394,6.631958,1.1473999,9.8896484,1.298481c3.8148193,0.1769104,7.6784668-1.0578957,11.5446777-1.4430542
	c1.418335-0.141304,2.9743652,0.1914902,4.3453369,0.6633148c3.4943848,1.2025108,6.3326416,3.600666,10.7299805,2.8382187
	c5.7325439-0.993988,11.6682129-3.1688766,17.635376,0.3754311c1.6325684,0.9696846,5.3881836-1.3771515,6.7998047-0.3391228
	c5.741333,4.22229,11.8564453,0.3620911,17.6755371,1.4667244c1.3881836,0.2635002,3.2175293-1.7967262,4.3959961-2.5151215
	c2.8685303,0.8096848,5.829834,2.2085571,8.8643799,2.3909187c7.5158691,0.4516792,15.1734619-0.3707581,22.5593262,0.7429428
	c4.2344971,0.6385078,9.2147217-2.3847847,12.9473877,1.9907722c0.1677246,0.1965866,2.1547852-1.2492943,3.3486328-1.8162994
	c1.6954346-0.805275,4.8789062-2.2800522,4.9562988-2.1366615c2.1680908,4.0207939,4.9580078,0.5471878,7.0158691,0.3038864
	c3.6090088-0.4266815,7.0212402-2.3525467,10.5957031-3.3697357c0.75354-0.2144394,1.8511963,0.78088,2.7901611,1.2187881
	c0.5643311,0.5681877,1.8282471,0.8983879,2.4233398,0.4113693c2.2904053-1.8740082,4.0531006-2.7386971,5.8074951,0.705204
	c0.2266846,0.445076,2.6925049,2.2417641,4.8244629,0.2537193c1.1723633-1.0931587,3.8084717-0.6162376,6.1008301-0.8841972
	c-0.4121094,1.4359245-0.6018066,2.0967026-0.9707031,3.3819504c1.0979004-0.8764153,1.7514648-1.3340836,2.3254395-1.8761559
	c0.4720459-0.4459457,0.8496094-0.9919853,1.269165-1.4936256c-0.0061035,0.5188751-0.012207,1.0377464-0.0181885,1.5566216
	c2.03479,0.5840111,4.1744385,1.8882446,6.0838623,1.6104355c4.7956543-0.6976967,9.3074951-1.1811104,13.1398926,2.5870476
	c0.184082,0.1809196,0.6466064,0.1590767,0.9624023,0.1136703c5.885376-0.8460464,11.7681885-1.7099915,17.4042969-2.5340462
	c0.3508301,0.9390182,0.8453369,2.2624741,1.3406982,3.5884705c1.7404785-1.1355934,3.03479-1.9801369,4.9921875-3.2572632
	c-0.0838623,1.6609039-0.1231689,2.4388008-0.1480713,2.9322929c1.7178955,0.2820892,3.2718506,0.8923912,4.6859131,0.6581078
	c1.1501465-0.1905708,2.3511963-2.1847687,3.1397705-1.9670944c1.2790527,0.3529892,2.2390137,1.8621674,3.2976074,2.8496666
	c2.9647217-1.493515,5.5133057-7.5766296,8.3408203,0.1670685c1.4758301-1.7438736,2.5777588-3.0460358,4.0943604-4.8381882
	c0.689209,1.7811356,1.1712646,3.0267792,1.1241455,2.9049759c7.4946289,0.5421753,14.3197021,1.0359116,20.6619873,1.4947205
	c2.3083496-0.6373787,4.4735107-1.2352142,6.6386719-1.8330536c0.1083984,0.4182205,0.2169189,0.836441,0.3253174,1.2546616
	c-1.2525635,0.7974548-2.505127,1.5949059-3.715332,2.3653946c4.977417-0.7320404,9.6152344-1.4876137,14.2753906-2.0636826
	c1.8865967-0.2332191,3.8291016,0.0018082,5.7261963-0.1815948c0.2681885-0.0259132,0.4230957-1.2227135,0.6304932-1.8775749
	c0.4395752,0.6442947,1.0700684,1.2363853,1.2646484,1.9476929c0.1925049,0.703804-0.0548096,1.5279312-0.1240234,2.5089302
	c3.3183594-1.4803505,6.3095703-2.8147354,9.7510986-4.3500481c-0.2229004,1.4582138-0.3586426,2.3460579-0.4943848,3.2339172
	c0.8265381-0.3218002,1.6293945-0.8058395,2.4847412-0.9315643c1.7667236-0.2597237,4.8828125-0.9328117,5.135498-0.380085
	c1.9910889,4.3537903,5.8581543,0.0027733,8.1425781,2.049118c1.7077637-2.1128044,3.5888672-2.5134926,6.4893799-2.3496857
	c2.0585938,0.1162529,4.291626-2.8586235,6.4373779-4.4468803c1.4711914,2.7037277,6.0189209,2.6244965,9.7105713,0.4306793
	c1.4475098,0.372963,2.6898193,0.0478821,3.9508057-0.1699104c1.7310791-0.2989731,3.4760742-0.5166702,5.4104004-0.7975502
	c0.2996826,1.3881111,0.6000977,2.7793808,0.9224854,4.2727051c2.1901855,0,4.145874,0,6.1016846,0
	c0.0267334-0.2844124,0.0535889-0.5688248,0.0803223-0.8532448c-1.001709-0.2262497-2.003418-0.4524956-3.005249-0.6787453
	c0.1115723-0.5656166,0.2230225-1.1312332,0.3344727-1.696846c3.6783447,0.6936073,7.3565674,1.3872147,11.5488281,2.1777382
	c-0.0421143,0.1028862,0.4804688-1.1740799,1.1174316-2.7305946c5.2524414,3.2217026,10.6676025,4.1135979,16.3577881,1.6741295
	c-0.5498047,0.6895866-1.0997314,1.3791809-2.2388916,2.8078957c8.4001465-3.9303055,9.3994141-3.9392815,17.3721924-0.5953865
	c2.0600586-1.8379974,3.8626709-5.8432503,6.8293457-0.8176231c0.1483154,0.2512245,1.6120605,0.0073013,2.2478027-0.3695793
	c1.3006592-0.7710686,2.4545898-1.7895393,3.6689453-2.7061462c0.2330322,0.3806229,0.4660645,0.7612381,0.6990967,1.141861
	c-1.0483398,0.6444855-2.0965576,1.2889748-3.1448975,1.9334641c0.9644775,0.6951485,1.6711426,0.7426758,2.2839355,0.5253868
	c2.8282471-1.0027733,5.1656494-2.6272964,8.7489014-0.787281c2.0626221,1.0591621,6.668457,2.6845551,7.7822266-1.7907257
	c2.5332031,0.2125854,4.6517334,0.4804268,6.7766113,0.5510368c5.4099121,0.17976,10.8280029,0.1743584,16.2319336,0.4534569
	c1.7731934,0.0915833,3.5131836,0.8296204,5.0841064,1.2255974c0.4016113-0.6701393,1.0755615-1.7943459,1.7492676-2.9185715
	c1.651001,1.0904617,3.302002,2.1809425,5.2796631,3.487175c4.7314453-5.2118149,11.0828857-1.3022079,16.8540039-1.4793472
	c1.7060547-0.0523643,3.2369385,1.3546181,5.4459229-0.1817017c1.7432861-1.2125435,4.3817139-1.1378555,6.6226807-1.6348495
	c0.0805664,0.2206802,0.1610107,0.4413605,0.2415771,0.6620407c-0.9368896,0.6453667-1.8736572,1.2907333-2.8105469,1.9360962
	c2.0240479,0.6540375,3.4822998,0.1689415,4.9753418-0.1561279c2.4377441-0.5307121,5.7260742-2.1906509,7.1981201-1.2026176
	c4.9693604,3.3352165,9.244751,0.7574844,13.8930664-0.2032661c1.6503906,3.4530945,3.8345947,3.5567741,6.8804932,1.1454926
	c1.2406006-0.9821053,3.3082275-1.4955978,4.8981934-1.3175049c2.0922852,0.2343559,4.0845947,1.360836,6.119751,2.1037216
	c0.128418-0.331131,0.2567139-0.6622658,0.3851318-0.9934006c0.4434814,0.8964691,0.887085,1.7929344,0.9875488,1.9958153
	c4.2000732-2.1406822,7.8540039-4.610527,11.8862305-5.8547516c2.9222412-0.9017258,3.1254883-0.1793671,3.3947754-2.9203949
	c0.0604248-0.6151123,0.3157959-1.2110596,0.4813232-1.8158417c0.5356445,0.0879173,1.0712891,0.1758308,1.6070557,0.2637444
	c-0.4298096,2.3622246-0.8594971,4.7244453-1.3582764,7.4662132c4.526001-2.2260742,9.1323242-4.4916878,13.7386475-6.7573013
	c0.2723389,0.4742699,0.5445557,0.9485474,0.8168945,1.422821c-1.8439941,1.2535172-3.6879883,2.5070305-5.5319824,3.7605476
	c5.8327637-3.3950653,13.3250732,1.8531303,18.9217529-3.8740997c1.3994141,1.7752113,2.7741699,3.5189781,4.8197021,6.1137161
	c3.0754395-1.9306259,6.3060303-3.9586525,10.2288818-6.4212112c0.2105713,0.4056816,1.3625488,1.6351013,1.3388672,2.8413849
	c-0.0267334,1.3615303-1.1112061,2.7022552-2.0358887,4.7015877c2.5842285-0.8694954,4.8723145-2.4880371,6.0767822-1.8971367
	c5.121582,2.5123672,6.3234863,0.001915,7.4587402-4.6019211c0.7392578,2.2051506,1.4785156,4.4102936,2.2414551,6.686264
	c2.6887207-0.3766441,5.6002197-0.7844772,8.5115967-1.1923103c-0.2935791-0.2091751-0.5871582-0.4183426-0.8807373-0.6275139
	c1.9047852-1.717144,3.8095703-3.434288,5.7143555-5.151432c0.5578613,0.6249695,1.1158447,1.2499428,1.6737061,1.8749123
	c-1.5054932,1.3776512-3.0108643,2.7552948-4.5163574,4.132946c0.2109375,0.4216576,0.4219971,0.8433189,0.6329346,1.2649765
	c3.2425537-1.8687706,6.4851074-3.7375336,10.213623-5.8863182c0.2047119,1.983017,0.3590088,3.4769058,0.5047607,4.8876877
	c1.586792-0.4239578,3.3570557-1.5431747,4.5410156-1.0989876c4.6047363,1.7274208,5.4549561-0.535923,5.3994141-4.4517326
	c0.3582764,1.4690132,0.1442871,2.974514,0.6425781,4.1874046c0.4261475,1.0373955,1.5480957,2.1762619,2.5858154,2.4634399
	c0.9875488,0.2733536,2.3145752-0.3766899,3.4039307-0.8324432c3.0216064-1.2642441,5.9853516-2.6669388,9.0134277-3.9141579
	c0.2322998-0.0956573,0.7950439,0.5909767,1.1945801,0.9254036c1.2089844,1.0115089,2.4130859,2.0285835,3.6191406,3.0434837
	c0.9805908-1.2203026,1.9610596-2.4405746,3.0002441-3.7337761c4.1746826,1.2314682,8.5897217,2.8044472,13.1322021,3.79142
	c3.8974609,0.8467979,8.192749,0.3364143,11.8515625,1.6801872c4.0513916,1.4880142,6.6722412,1.9202003,8.7128906-2.6274834
	c0.329834-0.7349091,3.2102051-0.3251762,5.9564209-0.5178947c-2.276123,1.5925064-3.4403076,2.4071236-4.6046143,3.2217369
	c0.3411865,0.6017532,0.6824951,1.203495,1.0236816,1.8052444c2.987793-1.3593369,5.9754639-2.7186699,9.0415039-4.1135902
	c3.5374756,3.6374016,12.5672607,3.3781204,16.1741943-0.9948769c0.1651611,1.3514862,0.2965088,2.4260445,0.4920654,4.025425
	c1.03479-1.1716499,1.6218262-1.8361931,1.505249-1.7042503c2.0209961,1.0163841,3.963501,2.7518616,4.9433594,2.3172302
	c1.6826172-0.746357,2.7644043-2.8473244,4.4393311-4.7711754c0.8974609,2.7753334,1.5314941,4.7364769,2.3840332,7.3730507
	c1.954834-1.3160019,3.6134033-2.4325638,5.4343262-3.6584473c0.7579346,0.9708061,1.5174561,1.9437065,2.7316895,3.4989166
	c1.6403809-2.7384377,3.010498-5.0256081,4.3804932-7.3127823c0.5446777,0.2370224,1.0892334,0.474041,1.6339111,0.7110596
	c-0.7209473,2.0344124-1.4418945,4.0688286-2.1629639,6.103241c1.8520508-0.1130753,3.0561523-1.2452888,4.4661865-1.9851303
	c1.4309082-0.7508125,3.2608643-1.8487854,4.5705566-1.4993439c3.0186768,0.8053894,5.8275146,2.3962975,8.5219727,3.580761
	c1.1075439-3.1427841,1.8223877-5.1711655,2.892334-8.2073212c1.2191162,3.7824631,1.9685059,6.1071434,2.3956299,7.4325905
	c3.9155273,0,7.4528809,0,10.6574707,0c0-1.5907516,0-3.3940048,0-5.197258
	c0.4541016-0.087986,0.9080811-0.1759682,1.3621826-0.2639542c0.9200439,2.1983643,1.8400879,4.3967323,2.7600098,6.5950966
	c0.6947021-0.8904915,0.362915-1.9925308,0.7623291-2.4356117c0.8948975-0.9928894,2.1534424-1.6581459,3.263916-2.4567451
	c1.7666016,5.0588455,5.2584229,1.2191353,7.5266113,1.4869652c0.5826416,1.6419144,1.0899658,3.0715141,1.59729,4.5010986
	c1.9178467-0.912899,3.8356934-1.8257828,5.7346191-2.7296753c-0.3104248-0.4901123-0.9111328-1.4385757-1.5118408-2.3870392
	c0.5437012-0.3167191,1.0872803-0.6334419,1.6309814-0.9501572c1.0510254,2.0696259,2.1020508,4.1392555,3.2633057,6.425972
	c1.6182861-0.7518959,3.1856689-1.6173897,4.8519287-2.2001038c0.9207764-0.3220673,2.8674316-0.3385315,2.8930664-0.2072983
	c0.5856934,2.9930153,2.0750732,2.1178856,4.239624,1.6384163c3.1679688-0.7017136,6.6312256-0.9862747,9.8139648-0.4786797
	c4.2084961,0.6711502,7.75354,0.2077637,10.8688965-2.7707977c0.1658936-0.158474,0.6153564-0.0204544,0.9395752-0.0204544
	c0.3125,0.9554749,0.6333008,1.9361534,1.0469971,3.2009583c4.6685791-3.1021538,8.991333-4.2274513,12.2695312-0.8135567
	c2.6019287-0.9010963,4.6899414-1.6039391,6.7635498-2.3469238c3.1447754-1.1267204,6.2796631-2.2813225,9.8613281-3.5851555
	c-0.890625,1.4969826-1.8914795,3.1794586-3.1638184,5.318119c2.0727539,0.6113815,4.1192627,1.2150612,6.5786133,1.9404831
	c0.3291016-1.5422935,0.5396729-2.6099701,0.7875977-3.6688995c0.2453613-1.0476913,0.5280762-2.0866051,0.7722168-3.0430679
	c1.6268311,0.9438553,3.0192871,1.7517433,3.920166,2.2744102c-0.3189697,1.216095-0.598999,2.2831917-0.8789062,3.3503036
	c0.963623-0.4520264,2.1044922-0.7106514,2.8533936-1.3970757c1.4838867-1.3602371,2.7514648-2.9566269,4.2241211-4.5831718
	c1.6512451,4.3425369,3.4846191,4.715477,6.9343262,1.8164825c-0.6922607-0.3167038-1.4145508-0.6470947-2.1368408-0.9774857
	c-0.0047607-0.500145-0.0096436-1.0002899-0.0145264-1.5004349c7.0251465,3.570034,13.0281982,2.3903732,18.8548584-3.2805862
	c0.4581299,2.0647049,0.8361816,3.7682266,1.1074219,4.9909401c1.9559326-1.1603661,4.0435791-2.3988953,6.1312256-3.6373978
	c0.5183105,1.2624931,1.0366211,2.5249634,1.3015137,3.1699829c12.2487793-1.3080292,24.4798584-2.6141739,37.0566406-3.9572258
	c0.3077393,0.5110207,0.8931885,1.4829712,1.0388184,1.7247696c2.2907715,0,4.0675049,0,6.1685791,0
	c0.9587402-2.2005272,1.5004883-2.5117226,4.6220703-1.4484825c3.5023193,1.1928253,6.8464355,2.3549385,9.9986572-0.9804192
	c0.3983154-0.4214287,2.34729,0.5168953,3.5142822,0.9838829c0.4260254,0.1704941,0.8291016,1.2178879,0.9697266,1.1632156
	c3.2363281-1.258316,6.4350586-2.6136093,9.7470703-3.9952278c0.5251465,0.8419495,1.3364258,2.1428337,2.4746094,3.9677086
	c1.810791-2.3914452,3.2546387-4.2981377,4.6984863-6.2048302c2.3430176,0.0364304,4.199707-1.0211411,6.1875-1.411808
	c1.942627-0.3817863,4.019043-0.0830574,6.0366211-0.0830574c-0.0324707,0.4288025-0.0649414,0.857605-0.0974121,1.2864075
	c0.6276855-0.9505997,1.2556152-1.901207,1.8833008-2.8518219c1.0192871,0.8261795,2.0388184,1.6523705,3.027832,2.4539986
	c4.4274902-0.6239319,9.2087402-1.2977295,13.9855957-1.9709015c-0.262207,1.1973495-0.4262695,1.9472046-0.4245605,1.9395638
	c2.2792969,0,4.2641602,0.0615845,6.2441406-0.0116043c5.8139648-0.21492,12.0644531,1.4435844,16.6523438-4.3922806
	c0.8688965,5.8293304,1.4331055,5.9975395,6.9611816,2.6431808c2.3083496,3.1067657,4.8562012,2.9275169,7.8962402,0.9298782
	c1.2631836-0.8301086,3.050293-1.0789909,4.6242676-1.173481c2.9597168-0.1776886,5.9377441-0.0512199,9.5268555-0.0512199
	c-0.2312012,0.8501015-0.619873,2.2781677-1.0136719,3.7243958c4.8308105-0.402916,4.8308105-0.402916,4.1418457-3.6241493
	c5.9956055,0.0550003,11.9223633,7.7377853,17.8432617-0.750885c0.4714355,2.2612953,0.7219238,3.462944,0.9799805,4.7010422
	c7.1955566-4.1017838,14.869873-3.762722,22.5407715-3.4011879c0.140625,1.1326714,0.3083496,2.4844742,0.5388184,4.3410912
	c2.5534668-5.1468353,15.8400879-6.7255363,23.2739258-4.0538101c1.1008301-0.7925072,2.2751465-1.1114578,3.4160156-1.0177536
	c3.2451172,0.2666054,6.7995605,2.7530785,8.7392578-0.5465508c3.3300781,0.2077293,6.6088867,1.381916,8.7954102,0.315979
	c3.0961914-1.5092926,5.4858398-1.0091629,8.3623047-0.2108192c1.8894043,0.5243797,3.9821777,0.2907143,5.9777832,0.4647408
	c2.1577148,0.188179,4.3339844,0.7870064,6.4570312,0.6225777c5.1074219-0.3955612,10.1882324-1.1325378,15.2797852-1.7317886
	c1.9804688-0.5992966,4.3139648,0.9097404,6.3820801,0.6063423c3.6296387-0.5325203,6.9294434-1.4660797,10.7883301-0.3510933
	c3.097168,0.8948593,6.6760254,0.1914139,10.0371094,0.0783463c2.1413574-0.0720329,4.2756348-0.3611641,5.854248-0.5028191
	c2.223877,1.0425568,4.4772949,2.0991173,6.6782227,3.1309624c1.6713867-2.5369835,2.25-6.4474297,6.4152832-2.2737122
	c1.4516602,1.4547806,4.791748,1.174511,7.2897949,1.3088913c0.4992676,0.026844,1.0905762-1.6638565,1.8063965-2.8363686
	c0.6599121,1.2451134,1.1638184,2.1958389,0.967041,1.8244476c3.4238281-0.1536369,5.8598633-0.3789024,8.2841797-0.2883186
	c0.5888672,0.0219879,1.2504883,1.6635094,1.6896973,1.5789566c4.9802246-0.9584656,9.923584-2.1078758,15.3762207-3.3169022
	c0.1391602,1.1199379,0.2961426,2.3837433,0.4260254,3.4297028c1.5358887-0.5825462,3.1396484-1.7045517,4.6833496-1.6271095
	c1.4465332,0.072567,2.8295898,1.4149246,4.2404785,2.198494c0.1779785-0.2917137,0.355957-0.5834236,0.5339355-0.8751411
	c-0.5249023-0.3772354-1.0495605-0.7544746-1.6464844-1.1835175c1.6054688-0.8003883,3.0380859-1.514473,3.9599609-1.9740639
	c2.1159668,1.3476219,3.8466797,2.4497147,6.2478027,3.9789696c-0.5512695-1.6738625-0.7753906-2.354805-0.9997559-3.0357437
	c0.2995605-0.1602783,0.598877-0.3205605,0.8984375-0.4808388c0.7243652,1.0529213,1.4487305,2.1058388,2.340332,3.4016647
	c0.3598633-0.5779533,0.8967285-1.6850739,1.670166-2.5896149c0.4611816-0.5396461,1.7873535-1.1823883,1.8879395-1.0644646
	c2.5119629,2.9431648,6.1357422,0.4057617,9.1069336,1.9292221c1.7907715,0.9182777,4.5339355-0.0212135,7.302002-0.1463699
	c-0.0742188-0.1182442,0.4052734,0.644783,0.8847656,1.407814c0.0666504-0.5026588,0.1333008-1.0053139,0.1999512-1.5079727
	c1.7597656-0.1972694,3.5161133-0.437458,5.2800293-0.5820732c2.8833008-0.2363853,5.7717285-0.4105301,8.6582031-0.6109314
	c1.2675781-0.1317863,2.7199707,1.4799385,4.0927734,1.4146576c2.6179199-0.1245003,5.1904297-1.2055473,8.84375-2.1698761
	c-1.1955566,1.734478-1.6660156,2.4169693-3.0820312,4.4711075c5.6420898-1.380928,10.0202637-2.4525146,16.3347168-3.9980392
	c2.3930664,0.3271408,7.1125488,0.972271,12.1706543,1.6636772c0.6030273-0.6464806,1.5578613-1.6698456,1.5393066-1.6499481
	c2.5839844,0.5378799,4.8210449,1.7153435,5.6928711,1.0643921c4.2541504-3.1762886,8.411377,0.7788048,12.5551758-0.2037621
	c0.3352051-0.0795326,1.0351562,1.3794327,1.1655273,1.5625458c1.6196289-0.8911171,3.1337891-1.7242203,4.9633789-2.7308197
	c0.6279297,1.8567352,1.0537109,3.1158676,1.190918,3.5213814c3.6767578-0.4036369,4.8745117-5.1591568,9.4042969-3.4133987
	c1.0541992,0.4063034,2.5957031-0.5055046,3.9250488-0.7468109c1.8103027-0.3287163,3.7053223-1.0582962,5.4318848-0.7838135
	c2.7563477,0.4381714,5.380127,1.6717529,8.1259766,2.2609558c0.3605957,0.0774078,1.1108398-1.661129,0.9567871-1.4183159
	c8.605957,0,16.4521484,0,24.3491211,0c0-1.3853111,0-2.2835693,0-3.1818314
	c0.2722168-0.0488586,0.5444336-0.0977135,0.8166504-0.1465759c0.3945312,0.8922844,0.7893066,1.784565,0.7421875,1.6781349
	c2.8825684-0.2144394,5.3608398-0.3988304,7.6589355-0.5697899c0.4672852-0.6073036,1.2966309-1.6855049,2.1259766-2.7637081
	c0.3898926,0.3901691,0.779541,0.7803345,1.1694336,1.1705017c1.0163574,0.9394016,2.0324707,1.8788013,2.4399414,2.2553844
	c3.0297852-1.3884659,5.4707031-2.5070591,8.5759277-3.9300709c-0.4362793,1.8763123-0.6928711,2.9808865-0.7094727,3.0521259
	c2.1677246,0.1015663,4.1025391,0.1318893,6.0258789,0.2973557c2.4841309,0.2137489,5.4914551,1.5660744,5.4194336-1.9993
	c3.7607422-0.2372055,7.3137207-0.4613056,10.6799316-0.6736336c0.5974121,0.8511963,1.3664551,2.62216,1.8642578,2.5488644
	c3.8339844-0.5645981,7.6152344-1.4867668,11.673584-2.3536892c0.4606934,0.6800632,1.1201172,1.6537304,2.5327148,3.7396107
	c-0.1777344-2.1596107-0.2443848-2.9695625-0.3352051-4.0726795c9.3527832,3.4051952,18.826416-1.2404308,28.1416016,0.8112755
	c10.4382324,2.2990704,20.7275391-0.0997028,31.1320801-0.7200527c0.111084,0.7372837,0.2233887,1.4813538,0.3974609,2.6358109
	c5.2202148-1.577177,10.2817383-3.1413918,15.3728027-4.6041698c0.7026367-0.2019062,1.548584,0.1339626,2.3303223,0.1608257
	c5.8979492,0.2027149,12.2407227,1.8216324,17.5673828,0.1700172c5.0664062-1.57094,9.3635254-1.6589489,14.2509766-0.7208996
	c2.2617188,0.434103,4.7478027-0.3000584,8.4853516-0.6206684c-2.2995605-1.8624496-3.1721191-2.5692997-4.0449219-3.2761497
	c1.8903809-0.6392841,3.956543-0.729845,4.6738281,0.2097416c2.4187012,3.1675758,5.5617676,2.8746128,8.862793,2.7727547
	c7.2924805-0.225008,14.5893555-0.4545689,21.8828125-0.4077511c1.9311523,0.0123901,3.855957,1.0221062,5.5383301,1.5036774
	c1.7504883-1.0057373,3.5285645-2.0274067,5.9060059-3.3933868c-0.2202148,2.1840191-0.3239746,3.2118778-0.4423828,4.3848591
	c1.4589844-0.8417473,2.5671387-2.0468044,3.5910645-1.9788456c5.9702148,0.3962421,11.9194336,1.1085281,17.8808594,1.6578903
	c0.5930176,0.0546284,1.2607422-0.1790676,1.826416-0.4303722c6.8708496-3.0533886,13.0510254,0.2905483,18.5046387,1.0821381
	c2.6015625-0.8806133,4.5830078-1.7148342,6.6464844-2.1967545c1.5808105-0.3691387,3.2651367-0.3913307,4.9038086-0.3954468
	c3.4694824-0.0087242,6.699707,1.3657169,10.482666-0.5575695c2.1721191-1.1042347,5.9296875,0.9107437,9.1237793,1.5517216
	c0.0371094,0.40271,0.1171875,1.276041,0.3491211,3.8054981c2.1408691-2.7396126,3.3913574-4.3398018,3.9013672-4.9924297
	c3.861084-0.2011127,7.4890137-0.3900757,11.3735352-0.5924053c-0.2585449,1.0939388-0.5625,2.380434-0.9343262,3.9543591
	c1.378418,0,2.8093262,0.4216499,3.2646484-0.0666656c3.7409668-4.0100021,7.5805664-3.5810108,12.1479492-1.3545303
	c1.2316895,0.6003494,3.7094727-1.3563309,6.263916-2.4058075c0.0461426,0.0683556,0.5380859,1.6204777,1.5124512,2.0331402
	c1.2868652,0.5450153,3.0217285,0.4831505,4.4316406,0.1393757c1.0695801-0.2608147,2.2038574-2.187912,2.845459-1.9750462
	c6.8183594,2.2628174,13.5146484-1.5807838,20.4553223,0.4647655c0.1206055,0.3240204,0.5361328,2.1836491,0.8476562,2.1663971
	c4.1547852-0.2298756,8.2995605-0.6841011,12.4321289-1.1999416c0.4987793-0.0622349,1.2961426-0.8030567,1.3051758-1.2429256
	c0.0874023-4.1741333,2.6938477-1.8536625,4.5083008-1.933836c1.8149414-0.0801716,3.6982422-0.4080791,5.3786621-1.0677662
	c1.0400391-0.4082298,1.7578125-1.6378345,3.142334-3.0199966c-0.4816895,2.8200169-0.7282715,4.2648201-0.9750977,5.7096138
	c1.7980957-0.1803284,3.6162109-0.2505722,5.3881836-0.5744553c1.5163574-0.2771873,2.9797363-0.845108,5.3642578-1.5496464
	c-1.1279297,2.5341167-1.5910645,3.5750732-2.6674805,5.9935112c2.3974609-1.4793282,3.8461914-1.8907032,4.4743652-2.8430328
	c2.9362793-4.4526081,7.5593262-1.6796913,9.5456543-0.6113033c7.6186523,4.097496,7.362793,4.5733757,13.5205078-1.3915958
	c-0.5126953,1.7695808-0.8964844,3.0940094-1.3205566,4.5572262c6.2648926,1.5453396,5.1337891-4.2775879,6.8469238-7.1607075
	c0.4797363,0.0596867,0.9594727,0.1193771,1.4389648,0.1790657c0.2827148,2.4874554,0.5656738,4.9749088,0.9501953,8.3590012
	c3.0390625-4.1672783,9.5429688-7.2073154,11.5998535-5.6778603c0.8571777,0.6375484,0.637207,2.723547,1.1362305,5.3627701
	c2.5708008-1.6617832,5.0854492-3.2873573,7.3498535-4.7511539c0.8352051,1.8332462,1.5710449,3.4486694,2.4177246,5.3069973
	c2.2756348-7.3409615,9.2993164-2.3214874,12.1342773-7.0799675c0.6181641,2.830162,1.0388184,4.756237,1.4594727,6.682312
	c0.2653809-0.0298786,0.5305176-0.0597591,0.7958984-0.0896378c0-0.8785915,0-1.7571831,0-2.8033924
	c4.0668945,0,7.8049316,0,12.0109863,0c0.4006348,0.6617241,1.3054199,2.1564808,2.4440918,4.0373631
	c1.9443359-2.5205173,3.4677734-4.9687061,6.2858887-1.4230289c0.6889648,0.8664074,4.1362305,1.014452,4.7072754,0.2659206
	c4.4326172-5.8102322,8.1472168-2.7314224,11.5549316,0.3959026c1.8879395-4.6909256,5.4487305-1.3068638,7.7475586-1.6121483
	c1.291748-1.7222061,2.4084473-3.2110882,4.1711426-5.5613728c0.1870117,2.7750168,0.2932129,4.3514175,0.404541,6.002573
	c4.1411133,0.3864384,8.5649414-0.3284187,11.6318359,1.3855877c3.4365234,1.9206276,5.895752-1.7901115,8.0490723-0.3541145
	c4.5148926,3.010807,7.3198242,1.4621849,10.3774414-2.0821762c1.6896973-1.9584942,3.6340332-0.9606571,4.1889648,1.8044605
	c-1.1066895-0.0561161-2.1401367-0.1085052-3.1733398-0.1609001c3.1982422,1.5201588,6.7041016,0.6126881,9.8276367,3.0083485
	c2.7167969,2.0836716,6.8125-2.7178802,9.8500977,0.959877c4.7670898-3.9704151,8.6794434-0.8344002,12.6962891,1.966732
	c-0.0986328-1.2608566-0.1628418-2.0837975-0.2270508-2.9067383c2.0793457,0.0000038,4.1584473,0.0000038,6.2949219,0.0000038
	c-0.0507812,0.8477364-0.1132812,1.8892975-0.2346191,3.9121323c3.734375-1.4817009,6.7729492-2.6874046,8.765625-3.4781075
	c1.8208008,1.6883698,2.7861328,2.962925,4.067627,3.6345329c0.8115234,0.425396,2.0939941-0.0477791,3.6381836-0.1488914
	c-0.9909668-1.173645-1.583252-1.8750229-2.5585938-3.0301628c5.7290039,0.370575,10.7585449,0.6958961,16.3278809,1.0561295
	c0.0175781,0.1205368,0.246582,1.6718025,0.59375,4.0255127c2.1540527-1.0835838,3.871582-1.9475861,5.6118164-2.8229866
	c4.4482422,2.9965172,15.652832,2.5262375,16.9951172-0.8156166c3.5090332,4.3644371,6.2214355,5.0250969,10.8005371,2.6600571
	c0.5656738-0.2923126,1.2937012-0.8047485,1.7680664-0.6539345c3.6169434,1.1497536,7.1889648,2.4390182,11.0529785,3.7814217
	c0.9313965-3.3311806,3.1582031-5.1108818,6.2492676-3.3145332c6.2995605,3.661068,9.8935547,3.7253151,14.4692383-0.6165237
	c1.2314453,2.7922134,2.4016113,5.8502693,6.0803223,2.404644c0.201416-0.1885109,0.9033203,0.1882477,1.3791504,0.2571983
	c3.279541,0.4754448,6.5568848,0.9684372,9.8461914,1.3668213c0.3835449,0.0464783,0.8068848-0.5874901,1.2561035-0.6728439
	c2.2475586-0.427002,4.4992676-0.9630051,6.7705078-1.092617c1.7539062-0.1001053,3.5341797,0.4115791,5.3110352,0.5298271
	c2.7558594,0.1834145,5.7556152-0.3772812,8.223877,0.5352058c3.8508301,1.4233475,5.5539551,0.0586891,6.8308105-3.81427
	c1.4865723,1.86306,2.7910156,3.4978676,3.2963867,4.1312561c4.4311523-1.1687622,7.9421387-2.0948105,10.2219238-2.6960754
	c2.1550293,1.1746483,3.4416504,2.3400726,4.8679199,2.5483322c2.3422852,0.3420067,4.8847656-0.3920631,7.1450195,0.1505508
	c3.5827637,0.8600082,6.4929199-0.4162064,9.607666-1.6523705c1.1105957-0.4406967,3.3862305-0.5034294,3.7216797,0.0761795
	c2.1713867,3.7533989,5.0952148,1.7543869,7.7910156,1.327446c0.5891113-0.0933342,1.548584-1.0085983,1.5895996-0.9568558
	c3.5737305,4.5430832,8.2580566-0.6614647,12.2307129,1.416832c1.7143555,0.8967896,4.0720215,0.5632668,6.137207,0.7885895
	c3.7338867-0.7224884,7.9421387-2.0234222,11.7431641-1.2696877c3.3173828,0.6578217,5.925293,1.547821,8.3774414-1.9340134
	c1.1743164,1.7490044,2.0686035,3.0813332,3.2797852,4.8854904c1.7028809-5.5836983,2.3647461-5.6261101,6.9555664-1.7246704
	c1.565918-0.8887215,3.0651855-1.7394981,4.5288086-2.5701408c2.4484863,3.2138557,2.2324219,2.3529854,6.3737793,1.3131943
	c4.5297852-1.1372147,10.3000488-2.0395241,14.0769043-0.1458778c3.7966309,1.9034615,7.3220215,1.6973648,10.1071777,0.8423615
	c5.3691406-1.6482964,10.8771973-0.7897339,15.6743164-0.2317085c8.3859863,0.975502,16.5471191,0.1601791,24.8046875,0.2547607
	c3.7414551,0.0428543,7.470459,1.1879616,12.0383301,1.9769325c-1.5627441-0.8334312-2.3840332-1.2714386-4.2429199-2.2629013
	c8.6948242,0,15.9401855,1.2009735,22.5136719-0.3844452c5.1513672-1.2423706,8.8974609-1.4506302,12.4731445,2.087738
	c1.4108887-2.3447762,2.71875-4.5182648,4.605957-7.6545563c0.8642578,2.5766754,1.2939453,3.8576813,1.8452148,5.5010719
	c3.8049316-0.8958282,7.260498-1.7094574,10.7163086-2.5230789c-0.123291-0.3356819-0.246582-0.6713676-0.369873-1.0070496
	c1.7697754,0.1962852,3.5397949,0.3925705,5.420166,0.6010933c-0.2800293-1.3683128-0.5026855-2.4561844-0.7875977-3.8485603
	c2.0529785-0.1460609,4.9794922-1.0789108,5.5878906-0.2693405c2.3508301,3.1268387,4.2541504,1.6812401,6.6176758,0.3857613
	c1.6333008-0.8952408,3.5231934-1.3229485,5.7399902-2.1179657c-0.130127,1.6666946-0.1984863,2.5423737-0.2668457,3.4180565
	c0.4125977,0.1725197,0.8251953,0.3450356,1.237793,0.5175514c0.6723633-1.4835358,1.026123-3.8599586,2.0917969-4.2402306
	c1.5795898-0.5634117,3.6638184,0.2887611,6.7888184,0.7059135c1.4692383-1.1711349,4.0871582-2.121027,7.1591797,0.667057
	c0.8037109,0.7292862,2.9057617,0.0273361,4.4116211-0.0172577c-0.1899414-0.7611809-0.3796387-1.5223618-0.8078613-3.2393894
	c3.1113281,0.9459476,5.7365723,1.7440281,7.7946777,2.3697796c4.1245117-3.9185562,9.401123,1.9662857,13.7668457-2.0023766
	c-0.2487793,1.6415138-0.3496094,2.3067589-0.5043945,3.3280907c7.5358887-4.1125088,15.0231934-3.596283,22.5119629-1.8683548
	c0.095459,0.5821838,0.190918,1.1643677,0.286377,1.7465515c1.1520996-1.2239914,2.3041992-2.4479828,3.855957-4.0966129
	c0.3840332,1.856123,0.689209,3.3317165,1.0358887,5.0072041c4.4460449-3.6946983,4.432373-3.6643124,9.4143066-1.4089241
	c0.628418,0.2844353,1.572998-0.1636581,2.2346191,0.0873718c4.4331055,1.682785,8.4714355-1.4246521,13.1523438-0.7964897
	c4.3093262,0.5782394,10.1044922,4.2205887,14.0556641-1.678093c0.1213379-0.1815109,1.3359375,0.080761,1.3369141,0.1482944
	c0.0444336,2.5723133,1.0383301,1.3425694,2.4313965,0.9207783c2.5866699-0.7831059,5.6157227-1.8777714,7.9892578-1.1975231
	c4.0769043,1.1683941,3.9248047,1.6987782,6.6811523-0.7825832c0.7915039,0.8882961,1.5825195,1.7759056,2.4191895,2.7146873
	c0.7861328-1.3014412,1.4926758-2.4709282,2.5761719-4.2648029c0.4482422,1.8586426,0.7236328,2.9997501,0.8144531,3.3766766
	c4.3137207-0.4262466,8.2573242-1.3810978,12.0817871-1.0324993c3.717041,0.3388214,7.3122559,2.0140476,10.9609375,3.1024265
	c0.1274414-0.4517021,0.2546387-0.9034004,0.3820801-1.3550987c-0.9157715-0.5084724-1.831543-1.0169411-2.7473145-1.5254097
	c1.1149902-0.9710026,1.793457-1.0260811,2.2897949-0.7516022c4.3791504,2.4217262,8.5820312,3.205555,13.3166504,0.3879623
	c1.1799316-0.7023067,3.8161621,1.0465889,5.7856445,1.6606407c0.2915039,0.0909653,0.597168,0.1364975,0.8955078,0.2023468
	c0.675293-1.015522,1.3513184-2.0304489,1.2385254-1.8611526c4.4467773,0.4439583,8.1391602,1.7404861,11.2719727,0.9146004
	c5.0932617-1.3425961,9.7546387-2.4058685,14.8041992-0.0067177c1.0290527,0.4889603,2.8754883-0.6613197,4.3120117-1.1524162
	c0.541748-0.1850834,1.0285645-0.9768944,1.4741211-0.9249039c3.670166,0.4283905,7.3149414,0.9191017,11.043457,0.5811615
	c0.6269531-0.0568428,1.5341797,1.7981148,2.0317383,1.6711426c4.7746582-1.2188377,9.4887695-2.6735649,14.5529785-4.1582603
	c-1.7419434,1.5671844-3.3840332,3.0444241-5.1530762,4.6358299c5.833252-1.2593632,11.1816406-2.4140873,16.401123-3.5409698
	c0.3476562,1.6613045,0.6201172,2.964344,1.0563965,5.0493851c1.8032227-1.9007568,2.6977539-3.1885357,3.9082031-4.0121632
	c0.9946289-0.6767654,2.364502-0.8022137,3.5683594-1.1719666c-0.1166992,1.0290012-0.2333984,2.0579929-0.3579102,3.1566906
	c2.0837402-0.9007626,4.010498-2.3439083,6.0056152-2.4455528c2.6474609-0.1348934,5.46875,1.4988174,7.9987793,1.0760422
	c4.1347656-0.6909313,8.0944824-2.4283142,12.170166-3.7377396c0.0754395,0.7027607,0.2053223,1.9129906,0.1877441,1.748539
	c5.1577148-0.3972607,9.7763672-0.7530022,15.2399902-1.1738281c1.0002441-1.1084709,2.9248047-3.2413845,5.8547363-6.4885654
	c-0.3127441,2.5817947-0.4487305,3.7048054-0.6328125,5.2253094c1.3713379-1.8756733,2.5109863-3.4344749,3.7800293-5.1701775
	c2.9719238,1.8043156,5.8134766,3.5294399,8.7409668,5.3066692c0.3640137-2.0784092-0.4882812-4.2930107,3.9353027-2.3570518
	c5.3400879,2.3370476,11.9599609,2.9680767,17.8527832,2.432682c4.576416-0.41576,8.7226562-0.2319717,13.0678711,0.775053
	c1.5166016,0.3515091,3.3317871,0.2456264,4.8127441-0.2463341c3.3728027-1.1203327,6.6367188-5.2672195,9.9255371,0.110157
	c0.0263672,0.0431652,0.4460449-0.1540508,0.6818848-0.2390499c1.3066406-0.4713326,2.612793-1.3407516,3.9196777-1.34161
	c4.4868164-0.0029507,8.9731445,0.3492622,13.4614258,0.3908558c0.3747559,0.0034752,0.7614746-1.3051167,1.2512207-2.2034321
	c0.6433105,1.2494164,1.2165527,2.3631458,2.0090332,3.9027176c3.4020996-1.2899952,6.5905762-2.5511475,9.8222656-3.6890202
	c0.8303223-0.2922382,2.4619141-0.5207634,2.6032715-0.230814c2.885498,5.9097042,4.5290527,0.3016605,6.6049805-1.0209675
	c0.0388184,0.4875755,0.0776367,0.9751472,0.1164551,1.4627209c2.9594727,0,5.9187012,0,9.1584473,0
	c-0.5998535,1.1078129-1.0251465,1.8932724-1.0146484,1.8741093c2.1740723,0,5.3747559,0.960947,6.5627441-0.1780853
	c3.7563477-3.6014061,6.0317383-0.7671623,8.7324219,1.0408573c3.3334961-4.0315838,7.9316406-3.9046211,9.3376465-0.7300301
	c3.4226074-0.1863594,6.4580078-0.3516312,10.4213867-0.5674381c-1.1643066,1.3599014-1.5703125,1.8342476-2.3312988,2.7229366
	c2.407959-0.1474571,4.3330078-0.2653389,6.1462402-0.3763752c0.3049316-1.3859119,0.5539551-2.5176163,0.8029785-3.6493168
	c0.296875,0.0341377,0.5939941,0.0682774,0.8911133,0.102417c0,1.2121868,0,2.4243698,0,4.2526627
	c2.4943848-1.3182793,4.6789551-2.4728031,5.7956543-3.0630341c1.9355469,0.7945518,3.5571289,2.1340218,4.6604004,1.7934856
	c4.1999512-1.2965412,4.3549805-1.4204674,6.7521973,2.5636063c8.7885742-3.0282841,8.7885742-3.0282841,15.7619629,0.8756123
	c0.3908691-0.2655735,0.7744141-0.5937099,1.2124023-0.8119659c1.9008789-0.9475327,3.8178711-1.8630867,5.7290039-2.7901936
	c0.2453613,0.5527954,0.4907227,1.1055889,0.736084,1.6583824c-1.0825195,0.3273087-2.1650391,0.6546135-3.2475586,0.9819183
	c0.0900879,0.3184566,0.1801758,0.6369152,0.2700195,0.9553738c4.543457-1.0699348,9.0866699-2.1398697,13.8081055-3.2516975
	c0.2324219,0.1825562,1.0847168,1.4049282,2.0895996,1.5467281c4.6013184,0.6494274,9.2478027,1.3554153,13.8735352,1.3265934
	c3.1359863-0.0195427,6.2644043-1.223917,10.3881836-2.11203c5.8041992,4.0667171,13.3554688,0.6757965,22.0732422-0.2089825
	c-1.8146973,1.5644855-2.3557129,2.0309658-2.8969727,2.4974442c1.2023926,0.2977047,1.9973145-0.2490959,2.8754883-0.4829559
	c1.7844238-0.4751377,4.0773926-1.6663094,5.3442383-1.0027122c5.3457031,2.7999496,11.6936035,2.5542583,16.5722656-1.3250275
	c0.7438965,1.2011318,1.5058594,2.4316616,1.7526855,2.8302307c1.8217773-1.0876541,3.0402832-1.8152065,5.440918-3.2485237
	c-1.0473633,2.2535667-1.3625488,2.9319859-1.6713867,3.5960655c3.8430176-0.8634605,7.4050293-1.6637783,10.9675293-2.4640923
	c0.0961914,0.4350128,0.1918945,0.8700218,0.2880859,1.3050365c0.7983398-0.9375896,1.597168-1.8751736,1.4819336-1.7399864
	c3.3461914,0,5.6918945,0,8.4160156,0c-0.8500977,1.4326363-1.3725586,2.3137074-2.3896484,4.0279331
	c2.4633789-1.5586472,4.0375977-2.5544548,5.9321289-3.7529945c0.324707,1.4613857,0.5258789,2.3648567,0.9047852,4.0703278
	c2.0073242-3.0793476,4.5605469-3.9667702,7.5341797-3.0621605c0.5722656,0.1740112,1.0708008,1.681694,1.3305664,1.6083794
	c1.387207-0.3911152,2.6879883-1.0887985,4.6176758-1.9468918c0.9453125,1.7584534,2.6079102,4.3121414,5.2441406,0.4142265
	c0.1728516-0.2560673,0.9663086-0.1925488,1.4487305-0.1234379c2.9833984,0.4271698,5.9501953,1.1803665,8.9433594,1.2986279
	c6.9814453,0.275856,14.0102539,0.7196331,20.9511719,0.1894989c4.7011719-0.3590927,9.1157227,0.7473831,13.6713867,0.8649845
	c0.8842773,0.0228329,1.793457-0.9191399,2.6914062-1.4160805c1.3442383,1.0665169,2.9467773,1.1454296,4.5390625,1.0531902
	c7.9042969-0.4578724,15.8305664-1.5425587,23.6987305-1.2119961c4.1733398,0.1753349,8.1879883,1.5153942,12.2255859-0.5859909
	c0.6713867-0.3494987,1.9658203-0.6428623,2.3129883-0.2983265c3.1113281,3.0887985,7.1054688,1.2924137,10.465332,1.4969788
	c5.9467773,0.3621044,12.0117188-1.564333,17.9956055-1.395483c6.3608398,0.1794853,12.6796875,0.7151508,19.0444336-0.0147572
	c6.5805664-0.7546577,13.5986328,3.9285545,19.8208008-1.5854874c0.184082-0.1629753,0.5996094-0.1190701,0.8989258-0.0881653
	c3.515625,0.3629894,7.0288086,0.7420044,10.6865234,1.1320972c-0.1743164,0.5527554-0.4282227,1.3581753-0.8242188,2.6148739
	c2.8891602-0.8642406,5.4350586-2.3278465,7.9130859-2.2204494c5.1445312,0.2230015,10.2392578,1.428215,15.3828125,1.9382744
	c3.1601562,0.3133659,6.3852539,0.2636909,9.5595703,0.0524006c2.996582-0.1994667,5.9707031-1.2112713,8.9453125-1.1711311
	c4.5849609,0.0618706,9.1572266,0.9683628,13.7436523,1.058403c6.2729492,0.1231365,12.5532227-0.1925716,18.8310547-0.2855511
	c0.4326172-0.0064049,1.0869141,0.1415043,1.2714844,0.4426498c2.5976562,4.234827,6.2001953,2.4042721,10.0869141,1.5271702
	c-0.8022461,1.2345047-1.402832,2.1588249-2.003418,3.0831451c0.3994141,0.2008362,0.7988281,0.40168,1.1982422,0.6025162
	c0.671875-1.3738594,1.3432617-2.7477264,2.0151367-4.1215897c0.3339844,0.0346146,0.6679688,0.0692329,1.0019531,0.1038475
	c0,1.4956017,0,2.9912071,0,5.2508888c1.9731445-0.6977692,3.6245117-1.2818184,5.3618164-1.8962784
	c2.5083008,2.6933708,7.4819336,2.9383011,13.0141602,0.2749825c-1.7285156-0.5918465-3.2558594-1.1145897-4.7827148-1.6373291
	c0.1928711-0.5161896,0.3857422-1.032383,0.5786133-1.5485725c3.6621094,1.4662056,7.3242188,2.9324112,10.9555664,4.3863411
	c1.5283203-0.8510857,3.5517578-1.977932,5.5751953-3.1047745c-0.0849609,0.3486862-0.1694336,0.6973686-0.2539062,1.0460548
	c3.4033203,0.6548424,6.8071289,1.3096809,10.4462891,2.0097733c-0.1274414-1.6779671-0.2314453-3.0413704-0.2421875-3.1862373
	c2.2529297,0.4401054,4.2597656,1.1360245,6.2753906,1.1609993c3.9150391,0.0485268,8.2578125-1.4218102,11.6459961-0.1652718
	c4.3203125,1.6023827,6.5629883,0.3381729,8.7861328-2.89785c2.7407227,5.4573135,11.6318359,5.9362907,17.0454102,0.7779694
	c0,1.9557037,0,3.5206261,0,6.1443367c3.7739258-4.103672,7.2915039-5.3093681,11.1796875-1.7741432
	c3.2861328-3.0632629,6.5585938-4.809536,11.0112305-2.0048904c1.7651367,1.1119919,4.3540039,1.2051201,6.5771484,1.2440567
	c5.1333008,0.0899124,10.2890625-0.4363594,15.4057617-0.1634903c7.2558594,0.3869438,14.4790039,1.3893509,21.7338867,1.809761
	c1.1142578,0.0646019,2.328125-1.5784569,3.4956055-2.4317551c2.0830078,1.1448822,4.1508789,1.1141472,6.2177734,1.1575775
	c1.0673828,0.0224228,2.4189453-0.2103348,3.1499023,0.3339386c4.9873047,3.7142296,10.0957031,0.5383987,15.1289062,0.4514503
	c3.3085938-0.0571556,6.6181641-0.4586334,9.9199219-0.3839569c3.0732422,0.069519,6.1425781,0.5205536,9.2036133,0.8869629
	c2.5654297,0.3070984,6.1914062-3.6818657,7.5546875,1.8143234c0.0390625,0.1588974,1.0283203,0.3118858,1.3959961,0.122036
	c2.1220703-1.0963631,4.1904297-2.2967033,6.2773438-3.4617805c1.8657227,1.1852341,3.7797852,1.2840157,5.5991211,1.7495193
	c3.1899414,0.8162651,6.9829102-1.5189667,8.7587891-0.8325386c4.355957,1.6840057,7.1572266,1.0435982,10.0844727-1.9673462
	c0.0151367-0.0160179,0.4482422,0.3742714,0.8227539,0.6897278c-0.6625977,0.8712234-1.3193359,1.7350693-2.1025391,2.7647057
	c5.1220703,1.6343956,10.1914062-3.4885979,14.9321289,0.969326c0.3466797-0.6844444,0.8164062-1.612999,1.1186523-2.2104034
	c2.8535156,0.6330185,5.2753906,1.170208,7.9780273,1.769825c2.949707-3.8326454,14.394043-1.554039,17.4814453,3.4611397
	c2.4848633-1.8232765,5.0141602-3.6787987,8.5415039-6.2671814c-0.1240234,2.3617859-0.1655273,3.1553001-0.2177734,4.153183
	c2.4267578-0.8879128,4.5556641-1.6669426,6.6860352-2.4406281c1.8461914,2.0426064,12.9384766,4.3392372,14.4116211,2.4111938
	c2.1699219-2.8393707,4.3891602-1.8512802,5.6914062-0.3304939c2.5053711,2.9255371,4.684082,1.4373932,6.0415039-0.4020386
	c0.8779297-1.1094818,1.7553711-2.2189636,3.0551758-3.8617783c0.847168,2.4909058,1.2954102,3.8093071,1.6611328,4.8843384
	c1.8422852-0.2538795,3.9833984-1.1404877,4.5698242-0.5311127c3.1713867,3.2953835,5.1967773,1.365593,7.078125-1.4124565
	c4.6923828,5.5872231,6.8457031-0.0356407,9.9262695-2.2638206c0.2587891,1.6571045,0.4384766,2.8069267,0.550293,3.523262
	c3.5014648,0,6.6113281,0,9.7563477,0c0.1000977,0.8004379,0.2070312,1.6534195,0.21875,1.74366
	c1.8120117-0.509922,4.2875977-0.464901,4.9204102-1.5227013c1.9448242-3.2520409,2.5551758,0.8385506,3.6601562,0.3783798
	c1.6274414-0.677742,3.1264648-1.6652908,5.8676758-3.1748123c-1.1386719,2.4775505-1.6679688,3.6288834-2.5112305,5.4634705
	c3.5766602-1.8096123,6.3466797-3.211277,9.3803711-4.746151c0.4760742,1.1428871,0.9462891,2.2705116,1.3256836,3.1801949
	c1.5942383-0.6352158,3.2236328-1.284214,5.2490234-2.0908661c-0.3417969,1.443779-0.5126953,2.1657791-0.6938477,2.9315109
	c2.5161133-0.1851044,4.6933594-0.3452797,7.1762695-0.5279503c-0.637207-0.5257301-1.1098633-0.9156342-2.1669922-1.7871857
	c2.8291016-0.4596596,5.0981445-0.8282585,7.6162109-1.2373657c-0.3588867,1.5099068-0.5322266,2.2385979-0.815918,3.4335709
	c1.6777344-0.9697266,2.765625-2.0972443,3.8481445-2.0919838c1.2265625,0.0059624,2.5019531,1.6125603,3.6630859,1.5056877
	c5.1240234-0.4716339,10.2885742-0.982338,15.2915039-2.1239815c3.6533203-0.8337517,6.1420898-0.494278,7.0351562,2.7585716
	c1.4272461-0.9936409,2.6396484-2.3305893,4.1074219-2.7308311c1.7045898-0.4649773,3.6337891-0.1083527,5.578125-0.1083527
	c1.7109375,6.7968674,6.5131836,1.7839775,10.2333984,2.5556564c-0.7910156-1.0485916-1.3217773-1.7518845-1.9672852-2.6070518
	c6.4169922,0.1210594,12.3027344,3.5725098,18.5463867,1.108593c0.7260742,3.3166313,3.4428711,3.1166,5.1152344,1.2551422
	c2.0141602-2.2419395,3.1381836-2.9441872,5.1713867-0.3638077c0.3227539,0.4096375,1.5185547,0.2432213,2.2929688,0.1657982
	c3.6113281-0.360939,7.2158203-0.7840919,11.0014648-1.204895c0.0810547,0.3586845,0.3769531,1.6725235,0.6142578,2.7266617
	c2.2211914-0.8087387,4.6879883-2.5463066,5.6870117-1.9247017c4.2675781,2.6560669,7.1665039,0.9562035,9.8837891-2.1524544
	c3.3579102,2.8628845,10.1308594,2.9797173,11.5839844,1.3336754c3.1015625,0.3995094,5.3061523,0.6835022,7.597168,0.9786339
	c-0.0317383-0.4731598-0.0864258-1.2944984-0.1352539-2.0192299c3.4243164,0.8072853,6.4155273,1.5125618,10.4882812,2.4727516
	c0.890625-0.4452591,3-1.4997635,4.0595703-2.0294075c3.2055664,1.087204,5.6040039,1.9005623,8.0600586,2.7334061
	c0.8774414-3.5561295,1.8466797-3.9726067,5.4394531-2.8839417c2.4462891,0.7414055,5.1235352,2.1575279,7.3999023,1.7207108
	c4.6000977-0.8827019,8.9082031-1.7335854,13.7387695-0.8391151c4.597168,0.8512917,9.4750977,0.1833153,14.097168,0.1833153
	c0.2275391-0.4344292,0.5556641-1.944252,1.1547852-2.0609055c4.0019531-0.7797127,8.0625-1.2622566,11.9868164-1.8245468
	c-0.0493164,0.2876625-0.1699219,0.9880257-0.0927734,0.5415039c2.9174805,0,5.5913086,0,8.8256836,0
	c-2.2485352-1.8721809-6.9921875-1.7782516-4.546875-6.103672c1.3857422,0.6765175,2.8012695,1.3675728,4.2426758,2.0713959
	C5001.4453125,27.8736591,5004.206543,26.535944,5006.949707,29.5070763z"/>
</svg>
