<?xml version="1.0" encoding="UTF-8"?>
<svg width="160px" height="23px" viewBox="0 0 160 23" version="1.1" xmlns="http://www.w3.org/2000/svg" xmlns:xlink="http://www.w3.org/1999/xlink">
    <!-- Generator: Sketch 52.4 (67378) - http://www.bohemiancoding.com/sketch -->
    <title>kalli-black</title>
    <desc>Created with Sketch.</desc>
    <g id="Page-1" stroke="none" stroke-width="1" fill="none" fill-rule="evenodd">
        <g id="kalli-black" fill="#000000">
            <path d="M10.223,11.444 C10.0103323,11.3859997 9.80250102,11.3473334 9.5995,11.328 C9.39649899,11.3086666 9.1983343,11.299 9.005,11.299 C8.36699681,11.299 7.83050218,11.4149988 7.3955,11.647 C6.96049783,11.8790012 6.61250131,12.1593317 6.3515,12.488 C6.0904987,12.8166683 5.90200058,13.1743314 5.786,13.561 C5.66999942,13.9476686 5.612,14.2859985 5.612,14.576 L5.612,22 L0.856,22 L0.856,7.558 L5.438,7.558 L5.438,9.646 L5.496,9.646 C5.86333517,8.91132966 6.38532995,8.31200232 7.062,7.848 C7.73867005,7.38399768 8.52166222,7.152 9.411,7.152 C9.6043343,7.152 9.79283242,7.16166657 9.9765,7.181 C10.1601676,7.20033343 10.3099994,7.22933314 10.426,7.268 L10.223,11.444 Z M19.402,15.707 L18.793,15.707 C18.2709974,15.707 17.7441693,15.7311664 17.2125,15.7795 C16.6808307,15.8278336 16.2071687,15.919666 15.7915,16.055 C15.3758313,16.190334 15.032668,16.3884987 14.762,16.6495 C14.491332,16.9105013 14.356,17.2536645 14.356,17.679 C14.356,17.949668 14.4188327,18.1816657 14.5445,18.375 C14.6701673,18.5683343 14.8296657,18.7229994 15.023,18.839 C15.2163343,18.9550006 15.4386654,19.0371664 15.69,19.0855 C15.9413346,19.1338336 16.1829988,19.158 16.415,19.158 C17.3816715,19.158 18.1211641,18.8921693 18.6335,18.3605 C19.1458359,17.8288307 19.402,17.1086712 19.402,16.2 L19.402,15.707 Z M10.673,9.53 C11.5236709,8.71799594 12.5144943,8.10900203 13.6455,7.703 C14.7765057,7.29699797 15.9316608,7.094 17.111,7.094 C18.3290061,7.094 19.3584958,7.24383183 20.1995,7.5435 C21.0405042,7.84316816 21.7219974,8.30716352 22.244,8.9355 C22.7660026,9.56383647 23.1478321,10.3564952 23.3895,11.3135 C23.6311679,12.2705048 23.752,13.4063268 23.752,14.721 L23.752,22 L19.402,22 L19.402,20.463 L19.315,20.463 C18.9476648,21.0623363 18.3918371,21.5263317 17.6475,21.855 C16.9031629,22.1836683 16.0960044,22.348 15.226,22.348 C14.6459971,22.348 14.0466698,22.2706674 13.428,22.116 C12.8093302,21.9613326 12.2438359,21.7100017 11.7315,21.362 C11.2191641,21.0139983 10.7986683,20.5500029 10.47,19.97 C10.1413317,19.3899971 9.977,18.6746709 9.977,17.824 C9.977,16.7799948 10.2621638,15.9390032 10.8325,15.301 C11.4028362,14.6629968 12.1374955,14.1700017 13.0365,13.822 C13.9355045,13.4739983 14.9359945,13.2420006 16.038,13.126 C17.1400055,13.0099994 18.2129948,12.952 19.257,12.952 L19.257,12.72 C19.257,12.0046631 19.0056692,11.477835 18.503,11.1395 C18.0003308,10.801165 17.3816703,10.632 16.647,10.632 C15.97033,10.632 15.3178365,10.7769985 14.6895,11.067 C14.0611635,11.3570014 13.5246689,11.704998 13.08,12.111 L10.673,9.53 Z M37.223,22 L37.223,20.115 L37.165,20.115 C36.7009977,20.8496703 36.0388376,21.4151647 35.1785,21.8115 C34.3181624,22.2078353 33.4046715,22.406 32.438,22.406 C31.3553279,22.406 30.3886709,22.1933355 29.538,21.768 C28.6873291,21.3426645 27.9671696,20.7771702 27.3775,20.0715 C26.7878304,19.3658298 26.3383349,18.5490046 26.029,17.621 C25.7196651,16.6929954 25.565,15.7263384 25.565,14.721 C25.565,13.7156616 25.7244984,12.7538379 26.0435,11.8355 C26.3625016,10.9171621 26.8168304,10.1100035 27.4065,9.414 C27.9961696,8.71799652 28.7114958,8.16700203 29.5525,7.761 C30.3935042,7.35499797 31.3359948,7.152 32.38,7.152 C33.4433387,7.152 34.3423297,7.35499797 35.077,7.761 C35.8116703,8.16700203 36.381998,8.61166425 36.788,9.095 L36.846,9.095 L36.846,0.076 L41.602,0.076 L41.602,22 L37.223,22 Z M37.049,14.75 C37.049,14.2859977 36.9668342,13.8316689 36.8025,13.387 C36.6381658,12.9423311 36.4061682,12.5460017 36.1065,12.198 C35.8068318,11.8499983 35.4443355,11.5696677 35.019,11.357 C34.5936645,11.1443323 34.110336,11.038 33.569,11.038 C33.0083305,11.038 32.5153355,11.1443323 32.09,11.357 C31.6646645,11.5696677 31.3070015,11.845165 31.017,12.1835 C30.7269986,12.521835 30.5095007,12.9133311 30.3645,13.358 C30.2194993,13.8026689 30.147,14.2569977 30.147,14.721 C30.147,15.1850023 30.2194993,15.6441644 30.3645,16.0985 C30.5095007,16.5528356 30.7269986,16.9539983 31.017,17.302 C31.3070015,17.6500017 31.6646645,17.9303323 32.09,18.143 C32.5153355,18.3556677 33.0083305,18.462 33.569,18.462 C34.110336,18.462 34.5936645,18.3556677 35.019,18.143 C35.4443355,17.9303323 35.8068318,17.6500017 36.1065,17.302 C36.4061682,16.9539983 36.6381658,16.5576689 36.8025,16.113 C36.9668342,15.6683311 37.049,15.2140023 37.049,14.75 Z M53.884,22 L53.884,14.17 C53.884,13.763998 53.8550003,13.3773352 53.797,13.01 C53.7389997,12.6426648 53.6278342,12.3188347 53.4635,12.0385 C53.2991658,11.7581653 53.081668,11.5358342 52.811,11.3715 C52.540332,11.2071658 52.1923355,11.125 51.767,11.125 C50.9356625,11.125 50.2976689,11.4198304 49.853,12.0095 C49.4083311,12.5991696 49.186,13.3289956 49.186,14.199 L49.186,22 L44.43,22 L44.43,0.076 L49.186,0.076 L49.186,9.385 L49.244,9.385 C49.5726683,8.8049971 50.0946631,8.2878356 50.81,7.8335 C51.5253369,7.37916439 52.3856616,7.152 53.391,7.152 C54.3770049,7.152 55.2034967,7.32599826 55.8705,7.674 C56.5375033,8.02200174 57.0788313,8.47149724 57.4945,9.0225 C57.9101687,9.57350275 58.2098324,10.2066631 58.3935,10.922 C58.5771676,11.6373369 58.669,12.3526631 58.669,13.068 L58.669,22 L53.884,22 Z M66.427,2.947 C66.427,3.31433517 66.3545007,3.6574984 66.2095,3.9765 C66.0644993,4.29550159 65.8711679,4.57099884 65.6295,4.803 C65.3878321,5.03500116 65.097835,5.21866599 64.7595,5.354 C64.421165,5.48933401 64.0683352,5.557 63.701,5.557 C62.9276628,5.557 62.2800026,5.30083589 61.758,4.7885 C61.2359974,4.2761641 60.975,3.66233691 60.975,2.947 C60.975,2.59899826 61.042666,2.26550159 61.178,1.9465 C61.313334,1.6274984 61.5066654,1.35200116 61.758,1.12 C62.0093346,0.88799884 62.2993317,0.699500725 62.628,0.5545 C62.9566683,0.409499275 63.3143314,0.337 63.701,0.337 C64.0683352,0.337 64.421165,0.40466599 64.7595,0.54 C65.097835,0.67533401 65.3878321,0.85899884 65.6295,1.091 C65.8711679,1.32300116 66.0644993,1.5984984 66.2095,1.9175 C66.3545007,2.23650159 66.427,2.57966483 66.427,2.947 Z M61.323,22 L61.323,7.558 L66.079,7.558 L66.079,22 L61.323,22 Z M84.364,22 L78.477,22 L73.75,15.069 L73.663,15.069 L73.663,22 L68.878,22 L68.878,0.076 L73.663,0.076 L73.663,13.416 L73.75,13.416 L78.361,7.558 L84.132,7.558 L78.564,14.083 L84.364,22 Z M93.456,15.707 L92.847,15.707 C92.3249974,15.707 91.7981693,15.7311664 91.2665,15.7795 C90.7348307,15.8278336 90.2611687,15.919666 89.8455,16.055 C89.4298313,16.190334 89.086668,16.3884987 88.816,16.6495 C88.545332,16.9105013 88.41,17.2536645 88.41,17.679 C88.41,17.949668 88.4728327,18.1816657 88.5985,18.375 C88.7241673,18.5683343 88.8836657,18.7229994 89.077,18.839 C89.2703343,18.9550006 89.4926654,19.0371664 89.744,19.0855 C89.9953346,19.1338336 90.2369988,19.158 90.469,19.158 C91.4356715,19.158 92.1751641,18.8921693 92.6875,18.3605 C93.1998359,17.8288307 93.456,17.1086712 93.456,16.2 L93.456,15.707 Z M84.727,9.53 C85.5776709,8.71799594 86.5684943,8.10900203 87.6995,7.703 C88.8305057,7.29699797 89.9856608,7.094 91.165,7.094 C92.3830061,7.094 93.4124958,7.24383183 94.2535,7.5435 C95.0945042,7.84316816 95.7759974,8.30716352 96.298,8.9355 C96.8200026,9.56383647 97.2018321,10.3564952 97.4435,11.3135 C97.6851679,12.2705048 97.806,13.4063268 97.806,14.721 L97.806,22 L93.456,22 L93.456,20.463 L93.369,20.463 C93.0016648,21.0623363 92.4458371,21.5263317 91.7015,21.855 C90.9571629,22.1836683 90.1500044,22.348 89.28,22.348 C88.6999971,22.348 88.1006698,22.2706674 87.482,22.116 C86.8633302,21.9613326 86.2978359,21.7100017 85.7855,21.362 C85.2731641,21.0139983 84.8526683,20.5500029 84.524,19.97 C84.1953317,19.3899971 84.031,18.6746709 84.031,17.824 C84.031,16.7799948 84.3161638,15.9390032 84.8865,15.301 C85.4568362,14.6629968 86.1914955,14.1700017 87.0905,13.822 C87.9895045,13.4739983 88.9899945,13.2420006 90.092,13.126 C91.1940055,13.0099994 92.2669948,12.952 93.311,12.952 L93.311,12.72 C93.311,12.0046631 93.0596692,11.477835 92.557,11.1395 C92.0543308,10.801165 91.4356703,10.632 90.701,10.632 C90.02433,10.632 89.3718365,10.7769985 88.7435,11.067 C88.1151635,11.3570014 87.5786689,11.704998 87.134,12.111 L84.727,9.53 Z M117.527,22 L117.527,20.115 L117.469,20.115 C117.004998,20.8496703 116.342838,21.4151647 115.4825,21.8115 C114.622162,22.2078353 113.708672,22.406 112.742,22.406 C111.659328,22.406 110.692671,22.1933355 109.842,21.768 C108.991329,21.3426645 108.27117,20.7771702 107.6815,20.0715 C107.09183,19.3658298 106.642335,18.5490046 106.333,17.621 C106.023665,16.6929954 105.869,15.7263384 105.869,14.721 C105.869,13.7156616 106.028498,12.7538379 106.3475,11.8355 C106.666502,10.9171621 107.12083,10.1100035 107.7105,9.414 C108.30017,8.71799652 109.015496,8.16700203 109.8565,7.761 C110.697504,7.35499797 111.639995,7.152 112.684,7.152 C113.747339,7.152 114.64633,7.35499797 115.381,7.761 C116.11567,8.16700203 116.685998,8.61166425 117.092,9.095 L117.15,9.095 L117.15,0.076 L121.906,0.076 L121.906,22 L117.527,22 Z M117.353,14.75 C117.353,14.2859977 117.270834,13.8316689 117.1065,13.387 C116.942166,12.9423311 116.710168,12.5460017 116.4105,12.198 C116.110832,11.8499983 115.748335,11.5696677 115.323,11.357 C114.897665,11.1443323 114.414336,11.038 113.873,11.038 C113.312331,11.038 112.819335,11.1443323 112.394,11.357 C111.968665,11.5696677 111.611001,11.845165 111.321,12.1835 C111.030999,12.521835 110.813501,12.9133311 110.6685,13.358 C110.523499,13.8026689 110.451,14.2569977 110.451,14.721 C110.451,15.1850023 110.523499,15.6441644 110.6685,16.0985 C110.813501,16.5528356 111.030999,16.9539983 111.321,17.302 C111.611001,17.6500017 111.968665,17.9303323 112.394,18.143 C112.819335,18.3556677 113.312331,18.462 113.873,18.462 C114.414336,18.462 114.897665,18.3556677 115.323,18.143 C115.748335,17.9303323 116.110832,17.6500017 116.4105,17.302 C116.710168,16.9539983 116.942166,16.5576689 117.1065,16.113 C117.270834,15.6683311 117.353,15.2140023 117.353,14.75 Z M134.188,22 L134.188,19.999 L134.13,19.999 C133.955999,20.3276683 133.728835,20.6369985 133.4485,20.927 C133.168165,21.2170014 132.839502,21.4683323 132.4625,21.681 C132.085498,21.8936677 131.669836,22.067666 131.2155,22.203 C130.761164,22.338334 130.282669,22.406 129.78,22.406 C128.813329,22.406 127.996503,22.2320017 127.3295,21.884 C126.662497,21.5359983 126.121169,21.0865028 125.7055,20.5355 C125.289831,19.9844972 124.990168,19.3561702 124.8065,18.6505 C124.622832,17.9448298 124.531,17.2246703 124.531,16.49 L124.531,7.558 L129.316,7.558 L129.316,15.388 C129.316,15.794002 129.345,16.1806648 129.403,16.548 C129.461,16.9153352 129.572166,17.2439985 129.7365,17.534 C129.900834,17.8240014 130.118332,18.0511658 130.389,18.2155 C130.659668,18.3798342 131.017331,18.462 131.462,18.462 C132.293337,18.462 132.926498,18.1526698 133.3615,17.534 C133.796502,16.9153302 134.014,16.1903375 134.014,15.359 L134.014,7.558 L138.77,7.558 L138.77,22 L134.188,22 Z M146.644,11.125 L146.644,16.635 C146.644,17.31167 146.774499,17.819165 147.0355,18.1575 C147.296501,18.495835 147.76533,18.665 148.442,18.665 C148.674001,18.665 148.920499,18.6456669 149.1815,18.607 C149.442501,18.5683331 149.659999,18.5103337 149.834,18.433 L149.892,21.913 C149.563332,22.0290006 149.147669,22.1304996 148.645,22.2175 C148.142331,22.3045004 147.639669,22.348 147.137,22.348 C146.170329,22.348 145.358337,22.2271679 144.701,21.9855 C144.043663,21.7438321 143.516835,21.3958356 143.1205,20.9415 C142.724165,20.4871644 142.439001,19.9458365 142.265,19.3175 C142.090999,18.6891635 142.004,17.9883372 142.004,17.215 L142.004,11.125 L139.684,11.125 L139.684,7.558 L141.975,7.558 L141.975,3.759 L146.644,3.759 L146.644,7.558 L150.037,7.558 L150.037,11.125 L146.644,11.125 Z M156.432,11.125 L156.432,16.635 C156.432,17.31167 156.562499,17.819165 156.8235,18.1575 C157.084501,18.495835 157.55333,18.665 158.23,18.665 C158.462001,18.665 158.708499,18.6456669 158.9695,18.607 C159.230501,18.5683331 159.447999,18.5103337 159.622,18.433 L159.68,21.913 C159.351332,22.0290006 158.935669,22.1304996 158.433,22.2175 C157.930331,22.3045004 157.427669,22.348 156.925,22.348 C155.958329,22.348 155.146337,22.2271679 154.489,21.9855 C153.831663,21.7438321 153.304835,21.3958356 152.9085,20.9415 C152.512165,20.4871644 152.227001,19.9458365 152.053,19.3175 C151.878999,18.6891635 151.792,17.9883372 151.792,17.215 L151.792,11.125 L149.472,11.125 L149.472,7.558 L151.763,7.558 L151.763,3.759 L156.432,3.759 L156.432,7.558 L159.825,7.558 L159.825,11.125 L156.432,11.125 Z" id="radhika-dutt"></path>
        </g>
    </g>
</svg>