<?xml version="1.0" encoding="UTF-8"?>
<svg width="239px" height="35px" viewBox="0 0 239 35" version="1.1" xmlns="http://www.w3.org/2000/svg" xmlns:xlink="http://www.w3.org/1999/xlink">
    <!-- Generator: Sketch 52.4 (67378) - http://www.bohemiancoding.com/sketch -->
    <title>kalli-white</title>
    <desc>Created with Sketch.</desc>
    <g id="Page-1" stroke="none" stroke-width="1" fill="none" fill-rule="evenodd">
        <g id="kalli-white" transform="translate(-1.000000, 0.000000)" fill="#FFFFFF">
            <path d="M15.3345,17.4147826 C15.0154984,17.3265213 14.7037515,17.2676813 14.39925,17.2382609 C14.0947485,17.2088404 13.7975014,17.1941304 13.5075,17.1941304 C12.5504952,17.1941304 11.7457533,17.3706504 11.09325,17.7236957 C10.4407467,18.0767409 9.91875196,18.5033308 9.52725,19.0034783 C9.13574804,19.5036257 8.85300087,20.0478956 8.679,20.6363043 C8.50499913,21.2247131 8.418,21.739563 8.418,22.1808696 L8.418,33.4782609 L1.284,33.4782609 L1.284,11.5013043 L8.157,11.5013043 L8.157,14.6786957 L8.244,14.6786957 C8.79500276,13.560719 9.57799492,12.6486992 10.593,11.9426087 C11.6080051,11.2365182 12.7824933,10.8834783 14.1165,10.8834783 C14.4065014,10.8834783 14.6892486,10.8981883 14.96475,10.9276087 C15.2402514,10.9570291 15.4649991,11.0011591 15.639,11.06 L15.3345,17.4147826 Z M29.103,23.9019565 L28.1895,23.9019565 C27.4064961,23.9019565 26.616254,23.9387315 25.81875,24.0122826 C25.021246,24.0858337 24.3107531,24.2255787 23.68725,24.4315217 C23.0637469,24.6374648 22.549002,24.9390198 22.143,25.3361957 C21.736998,25.7333716 21.534,26.2555765 21.534,26.9028261 C21.534,27.3147122 21.6282491,27.6677522 21.81675,27.9619565 C22.0052509,28.2561609 22.2444986,28.4915209 22.5345,28.6680435 C22.8245014,28.8445661 23.1579981,28.9696011 23.535,29.0431522 C23.9120019,29.1167033 24.2744983,29.1534783 24.6225,29.1534783 C26.0725073,29.1534783 27.1817462,28.7489533 27.95025,27.9398913 C28.7187538,27.1308293 29.103,26.0349344 29.103,24.6521739 L29.103,23.9019565 Z M16.0095,14.5021739 C17.2855064,13.2665156 18.7717415,12.3397857 20.46825,11.7219565 C22.1647585,11.1041273 23.8974912,10.7952174 25.6665,10.7952174 C27.4935091,10.7952174 29.0377437,11.0232224 30.29925,11.4792391 C31.5607563,11.9352559 32.5829961,12.6413358 33.366,13.5975 C34.1490039,14.5536642 34.7217482,15.759884 35.08425,17.2161957 C35.4467518,18.6725073 35.628,20.400932 35.628,22.4015217 L35.628,33.4782609 L29.103,33.4782609 L29.103,31.1393478 L28.9725,31.1393478 C28.4214972,32.0513814 27.5877556,32.7574613 26.47125,33.2576087 C25.3547444,33.7577561 24.1440065,34.0078261 22.839,34.0078261 C21.9689956,34.0078261 21.0700046,33.8901461 20.142,33.6547826 C19.2139954,33.4194191 18.3657538,33.0369592 17.59725,32.5073913 C16.8287462,31.9778234 16.1980025,31.2717435 15.705,30.3891304 C15.2119975,29.5065173 14.9655,28.4179775 14.9655,27.1234783 C14.9655,25.5347747 15.3932457,24.2550049 16.24875,23.2841304 C17.1042543,22.313256 18.2062433,21.5630461 19.55475,21.0334783 C20.9032567,20.5039104 22.4039917,20.1508704 24.057,19.9743478 C25.7100083,19.7978252 27.3194922,19.7095652 28.8855,19.7095652 L28.8855,19.3565217 C28.8855,18.2679656 28.5085038,17.4662707 27.7545,16.951413 C27.0004962,16.4365554 26.0725055,16.1791304 24.9705,16.1791304 C23.9554949,16.1791304 22.9767547,16.3997804 22.03425,16.841087 C21.0917453,17.2823935 20.2870033,17.8119534 19.62,18.4297826 L16.0095,14.5021739 Z M55.8345,33.4782609 L55.8345,30.6097826 L55.7475,30.6097826 C55.0514965,31.7277592 54.0582565,32.5882941 52.76775,33.191413 C51.4772435,33.794532 50.1070072,34.096087 48.657,34.096087 C47.0329919,34.096087 45.5830064,33.772467 44.307,33.1252174 C43.0309936,32.4779678 41.9507544,31.6174329 41.06625,30.543587 C40.1817456,29.469741 39.5075023,28.2267462 39.0435,26.8145652 C38.5794977,25.4023842 38.3475,23.9313845 38.3475,22.4015217 C38.3475,20.871659 38.5867476,19.4080142 39.06525,18.0105435 C39.5437524,16.6130727 40.2252456,15.3847879 41.10975,14.3256522 C41.9942544,13.2665164 43.0672437,12.4280466 44.32875,11.8102174 C45.5902563,11.1923882 47.0039922,10.8834783 48.57,10.8834783 C50.165008,10.8834783 51.5134945,11.1923882 52.6155,11.8102174 C53.7175055,12.4280466 54.572997,13.1047065 55.182,13.8402174 L55.269,13.8402174 L55.269,0.115652174 L62.403,0.115652174 L62.403,33.4782609 L55.8345,33.4782609 Z M55.5735,22.4456522 C55.5735,21.7395617 55.4502512,21.0481918 55.20375,20.3715217 C54.9572488,19.6948517 54.6092522,19.0917418 54.15975,18.5621739 C53.7102478,18.032606 53.1665032,17.6060161 52.5285,17.2823913 C51.8904968,16.9587665 51.1655041,16.7969565 50.3535,16.7969565 C49.5124958,16.7969565 48.7730032,16.9587665 48.135,17.2823913 C47.4969968,17.6060161 46.9605022,18.025251 46.5255,18.5401087 C46.0904978,19.0549663 45.7642511,19.6507213 45.54675,20.3273913 C45.3292489,21.0040614 45.2205,21.6954313 45.2205,22.4015217 C45.2205,23.1076122 45.3292489,23.8063371 45.54675,24.4977174 C45.7642511,25.1890977 46.0904978,25.7995626 46.5255,26.3291304 C46.9605022,26.8586983 47.4969968,27.2852882 48.135,27.608913 C48.7730032,27.9325378 49.5124958,28.0943478 50.3535,28.0943478 C51.1655041,28.0943478 51.8904968,27.9325378 52.5285,27.608913 C53.1665032,27.2852882 53.7102478,26.8586983 54.15975,26.3291304 C54.6092522,25.7995626 54.9572488,25.1964527 55.20375,24.5197826 C55.4502512,23.8431126 55.5735,23.1517427 55.5735,22.4456522 Z M80.826,33.4782609 L80.826,21.5630435 C80.826,20.9452143 80.7825004,20.3568144 80.6955,19.7978261 C80.6084996,19.2388378 80.4417512,18.7460529 80.19525,18.3194565 C79.9487488,17.8928602 79.622502,17.5545302 79.2165,17.3044565 C78.810498,17.0543828 78.2885032,16.9293478 77.6505,16.9293478 C76.4034938,16.9293478 75.4465033,17.3780028 74.7795,18.2753261 C74.1124967,19.1726494 73.779,20.2832542 73.779,21.6071739 L73.779,33.4782609 L66.645,33.4782609 L66.645,0.115652174 L73.779,0.115652174 L73.779,14.2815217 L73.866,14.2815217 C74.3590025,13.3989086 75.1419946,12.6119237 76.215,11.9205435 C77.2880054,11.2291632 78.5784925,10.8834783 80.0865,10.8834783 C81.5655074,10.8834783 82.805245,11.1482582 83.80575,11.6778261 C84.806255,12.207394 85.6182469,12.8914089 86.24175,13.7298913 C86.8652531,14.5683738 87.3147486,15.5318786 87.59025,16.6204348 C87.8657514,17.7089909 88.0035,18.7975308 88.0035,19.886087 L88.0035,33.4782609 L80.826,33.4782609 Z M99.6405,4.48456522 C99.6405,5.04355352 99.5317511,5.56575844 99.31425,6.05119565 C99.0967489,6.53663286 98.8067518,6.9558678 98.44425,7.30891304 C98.0817482,7.66195829 97.6467525,7.94144825 97.13925,8.1473913 C96.6317475,8.35333436 96.1025028,8.45630435 95.5515,8.45630435 C94.3914942,8.45630435 93.4200039,8.06648941 92.637,7.28684783 C91.8539961,6.50720625 91.4625,5.57312138 91.4625,4.48456522 C91.4625,3.95499735 91.563999,3.44750243 91.767,2.96206522 C91.970001,2.47662801 92.2599981,2.05739307 92.637,1.70434783 C93.0140019,1.35130258 93.4489975,1.06445762 93.942,0.843804348 C94.4350025,0.623151071 94.9714971,0.512826087 95.5515,0.512826087 C96.1025028,0.512826087 96.6317475,0.615796072 97.13925,0.82173913 C97.6467525,1.02768219 98.0817482,1.30717215 98.44425,1.66021739 C98.8067518,2.01326263 99.0967489,2.43249757 99.31425,2.91793478 C99.5317511,3.40337199 99.6405,3.92557692 99.6405,4.48456522 Z M91.9845,33.4782609 L91.9845,11.5013043 L99.1185,11.5013043 L99.1185,33.4782609 L91.9845,33.4782609 Z M126.546,33.4782609 L117.7155,33.4782609 L110.625,22.931087 L110.4945,22.931087 L110.4945,33.4782609 L103.317,33.4782609 L103.317,0.115652174 L110.4945,0.115652174 L110.4945,20.4156522 L110.625,20.4156522 L117.5415,11.5013043 L126.198,11.5013043 L117.846,21.4306522 L126.546,33.4782609 Z M140.184,23.9019565 L139.2705,23.9019565 C138.487496,23.9019565 137.697254,23.9387315 136.89975,24.0122826 C136.102246,24.0858337 135.391753,24.2255787 134.76825,24.4315217 C134.144747,24.6374648 133.630002,24.9390198 133.224,25.3361957 C132.817998,25.7333716 132.615,26.2555765 132.615,26.9028261 C132.615,27.3147122 132.709249,27.6677522 132.89775,27.9619565 C133.086251,28.2561609 133.325499,28.4915209 133.6155,28.6680435 C133.905501,28.8445661 134.238998,28.9696011 134.616,29.0431522 C134.993002,29.1167033 135.355498,29.1534783 135.7035,29.1534783 C137.153507,29.1534783 138.262746,28.7489533 139.03125,27.9398913 C139.799754,27.1308293 140.184,26.0349344 140.184,24.6521739 L140.184,23.9019565 Z M127.0905,14.5021739 C128.366506,13.2665156 129.852742,12.3397857 131.54925,11.7219565 C133.245758,11.1041273 134.978491,10.7952174 136.7475,10.7952174 C138.574509,10.7952174 140.118744,11.0232224 141.38025,11.4792391 C142.641756,11.9352559 143.663996,12.6413358 144.447,13.5975 C145.230004,14.5536642 145.802748,15.759884 146.16525,17.2161957 C146.527752,18.6725073 146.709,20.400932 146.709,22.4015217 L146.709,33.4782609 L140.184,33.4782609 L140.184,31.1393478 L140.0535,31.1393478 C139.502497,32.0513814 138.668756,32.7574613 137.55225,33.2576087 C136.435744,33.7577561 135.225007,34.0078261 133.92,34.0078261 C133.049996,34.0078261 132.151005,33.8901461 131.223,33.6547826 C130.294995,33.4194191 129.446754,33.0369592 128.67825,32.5073913 C127.909746,31.9778234 127.279002,31.2717435 126.786,30.3891304 C126.292998,29.5065173 126.0465,28.4179775 126.0465,27.1234783 C126.0465,25.5347747 126.474246,24.2550049 127.32975,23.2841304 C128.185254,22.313256 129.287243,21.5630461 130.63575,21.0334783 C131.984257,20.5039104 133.484992,20.1508704 135.138,19.9743478 C136.791008,19.7978252 138.400492,19.7095652 139.9665,19.7095652 L139.9665,19.3565217 C139.9665,18.2679656 139.589504,17.4662707 138.8355,16.951413 C138.081496,16.4365554 137.153506,16.1791304 136.0515,16.1791304 C135.036495,16.1791304 134.057755,16.3997804 133.11525,16.841087 C132.172745,17.2823935 131.368003,17.8119534 130.701,18.4297826 L127.0905,14.5021739 Z M176.2905,33.4782609 L176.2905,30.6097826 L176.2035,30.6097826 C175.507497,31.7277592 174.514256,32.5882941 173.22375,33.191413 C171.933244,33.794532 170.563007,34.096087 169.113,34.096087 C167.488992,34.096087 166.039006,33.772467 164.763,33.1252174 C163.486994,32.4779678 162.406754,31.6174329 161.52225,30.543587 C160.637746,29.469741 159.963502,28.2267462 159.4995,26.8145652 C159.035498,25.4023842 158.8035,23.9313845 158.8035,22.4015217 C158.8035,20.871659 159.042748,19.4080142 159.52125,18.0105435 C159.999752,16.6130727 160.681246,15.3847879 161.56575,14.3256522 C162.450254,13.2665164 163.523244,12.4280466 164.78475,11.8102174 C166.046256,11.1923882 167.459992,10.8834783 169.026,10.8834783 C170.621008,10.8834783 171.969494,11.1923882 173.0715,11.8102174 C174.173506,12.4280466 175.028997,13.1047065 175.638,13.8402174 L175.725,13.8402174 L175.725,0.115652174 L182.859,0.115652174 L182.859,33.4782609 L176.2905,33.4782609 Z M176.0295,22.4456522 C176.0295,21.7395617 175.906251,21.0481918 175.65975,20.3715217 C175.413249,19.6948517 175.065252,19.0917418 174.61575,18.5621739 C174.166248,18.032606 173.622503,17.6060161 172.9845,17.2823913 C172.346497,16.9587665 171.621504,16.7969565 170.8095,16.7969565 C169.968496,16.7969565 169.229003,16.9587665 168.591,17.2823913 C167.952997,17.6060161 167.416502,18.025251 166.9815,18.5401087 C166.546498,19.0549663 166.220251,19.6507213 166.00275,20.3273913 C165.785249,21.0040614 165.6765,21.6954313 165.6765,22.4015217 C165.6765,23.1076122 165.785249,23.8063371 166.00275,24.4977174 C166.220251,25.1890977 166.546498,25.7995626 166.9815,26.3291304 C167.416502,26.8586983 167.952997,27.2852882 168.591,27.608913 C169.229003,27.9325378 169.968496,28.0943478 170.8095,28.0943478 C171.621504,28.0943478 172.346497,27.9325378 172.9845,27.608913 C173.622503,27.2852882 174.166248,26.8586983 174.61575,26.3291304 C175.065252,25.7995626 175.413249,25.1964527 175.65975,24.5197826 C175.906251,23.8431126 176.0295,23.1517427 176.0295,22.4456522 Z M201.282,33.4782609 L201.282,30.4332609 L201.195,30.4332609 C200.933999,30.9334083 200.593252,31.4041282 200.17275,31.8454348 C199.752248,32.2867413 199.259253,32.6692013 198.69375,32.9928261 C198.128247,33.3164509 197.504753,33.5812309 196.82325,33.7871739 C196.141747,33.993117 195.424004,34.096087 194.67,34.096087 C193.219993,34.096087 191.994755,33.831307 190.99425,33.3017391 C189.993745,32.7721713 189.181753,32.0881564 188.55825,31.2496739 C187.934747,30.4111915 187.485251,29.4550416 187.20975,28.3811957 C186.934249,27.3073497 186.7965,26.2114549 186.7965,25.0934783 L186.7965,11.5013043 L193.974,11.5013043 L193.974,23.4165217 C193.974,24.0343509 194.0175,24.6227508 194.1045,25.1817391 C194.1915,25.7407274 194.358249,26.2408674 194.60475,26.6821739 C194.851251,27.1234805 195.177498,27.4691654 195.5835,27.7192391 C195.989502,27.9693128 196.525997,28.0943478 197.193,28.0943478 C198.440006,28.0943478 199.389747,27.6236279 200.04225,26.6821739 C200.694753,25.7407199 201.021,24.6374701 201.021,23.3723913 L201.021,11.5013043 L208.155,11.5013043 L208.155,33.4782609 L201.282,33.4782609 Z M219.966,16.9293478 L219.966,25.3141304 C219.966,26.3438457 220.161748,27.1161206 220.55325,27.6309783 C220.944752,28.1458359 221.647995,28.4032609 222.663,28.4032609 C223.011002,28.4032609 223.380748,28.3738409 223.77225,28.315 C224.163752,28.2561591 224.489999,28.1678991 224.751,28.0502174 L224.838,33.3458696 C224.344998,33.5223922 223.721504,33.6768472 222.9675,33.8092391 C222.213496,33.9416311 221.459504,34.0078261 220.7055,34.0078261 C219.255493,34.0078261 218.037505,33.8239511 217.0515,33.4561957 C216.065495,33.0884402 215.275253,32.5588803 214.68075,31.8675 C214.086247,31.1761197 213.658501,30.3523599 213.3975,29.3961957 C213.136499,28.4400315 213.006,27.3735566 213.006,26.1967391 L213.006,16.9293478 L209.526,16.9293478 L209.526,11.5013043 L212.9625,11.5013043 L212.9625,5.72021739 L219.966,5.72021739 L219.966,11.5013043 L225.0555,11.5013043 L225.0555,16.9293478 L219.966,16.9293478 Z M234.648,16.9293478 L234.648,25.3141304 C234.648,26.3438457 234.843748,27.1161206 235.23525,27.6309783 C235.626752,28.1458359 236.329995,28.4032609 237.345,28.4032609 C237.693002,28.4032609 238.062748,28.3738409 238.45425,28.315 C238.845752,28.2561591 239.171999,28.1678991 239.433,28.0502174 L239.52,33.3458696 C239.026998,33.5223922 238.403504,33.6768472 237.6495,33.8092391 C236.895496,33.9416311 236.141504,34.0078261 235.3875,34.0078261 C233.937493,34.0078261 232.719505,33.8239511 231.7335,33.4561957 C230.747495,33.0884402 229.957253,32.5588803 229.36275,31.8675 C228.768247,31.1761197 228.340501,30.3523599 228.0795,29.3961957 C227.818499,28.4400315 227.688,27.3735566 227.688,26.1967391 L227.688,16.9293478 L224.208,16.9293478 L224.208,11.5013043 L227.6445,11.5013043 L227.6445,5.72021739 L234.648,5.72021739 L234.648,11.5013043 L239.7375,11.5013043 L239.7375,16.9293478 L234.648,16.9293478 Z" id="radhika-dutt-copy"></path>
        </g>
    </g>
</svg>