<svg viewBox="0 0 198.59 136.02" xmlns="http://www.w3.org/2000/svg"><path d="m80.13 14.66s-5.13-2.15-1.47-6.15a3.16 3.16 0 0 1 4.39 1"/><path d="m68.08 106.53c-2.65-1.37-4-53.85-4-53.85a11 11 0 0 1 7.6-12l14.64-4.6a11 11 0 0 1 6.61 0l14.64 4.6a11 11 0 0 1 7.6 12s-2 26.52-2.79 52.35c.04-.03-21.21 13.48-44.3 1.5z" fill="#fff"/><path d="m88.21 112a43.84 43.84 0 0 1 -20.36-5c-2.7-1.4-3.92-41.91-4.23-54.29a11.45 11.45 0 0 1 7.95-12.5l14.64-4.61a11.47 11.47 0 0 1 6.91 0l14.64 4.61a11.46 11.46 0 0 1 7.94 12.55c0 .24-2 26.78-2.78 52.3v.27l-.23.14a50.4 50.4 0 0 1 -24.48 6.53zm-19.88-5.9c21.3 11 41.27 0 43.6-1.36.74-25.46 2.76-51.84 2.78-52.1a10.49 10.49 0 0 0 -7.25-11.5l-14.64-4.61a10.61 10.61 0 0 0 -6.31 0l-14.64 4.61a10.47 10.47 0 0 0 -7.25 11.47c.49 19.82 1.94 51.78 3.71 53.49z"/><path d="m116.79 95.84-3.38-19.4 12.77-1.19 2.37 17.04" fill="#fff"/><path d="m116.79 96.35a.5.5 0 0 1 -.49-.42l-3.38-19.41a.54.54 0 0 1 .09-.39.52.52 0 0 1 .36-.19l12.76-1.19a.51.51 0 0 1 .54.43l2.38 17a.5.5 0 1 1 -1 .14l-2.31-16.57-11.74 1.14 3.29 18.87a.51.51 0 0 1 -.41.58z"/><path d="m120.19 94.38-25.19-2.24a6.84 6.84 0 0 1 -1.23-.25c-1.06-.4-4.24-1.9-6.26-2.11a.55.55 0 0 0 -.42 1c.85.73 2.26 1.52 2.4 2 0 0 .34.93-1.37.83-1.93-.12-6.29-.55-8.94-1a.47.47 0 0 0 -.25.9 56.38 56.38 0 0 0 8.37 2.13l-.16.11c-2.63-.17-7.46-.71-10-1.14a.47.47 0 0 0 -.24.9 63.09 63.09 0 0 0 9.38 2.38s0 .09 0 .13c-2.19-.15-5.68-.61-7.94-1a.47.47 0 0 0 -.25.9 60 60 0 0 0 8.91 2.08l.08.13a15.11 15.11 0 0 1 -4.42-.36c-.58-.11-.81.87-.24 1a71.41 71.41 0 0 0 8.45 1.93l2.82.48 28.6 3.82a6.5 6.5 0 0 0 7.3-7.35l-1-7.39" fill="#fff"/><path d="m123.16 107.59a6.16 6.16 0 0 1 -1-.07l-28.6-3.81-2.84-.49a72.09 72.09 0 0 1 -8.51-1.94 1 1 0 0 1 -.64-1.24 1 1 0 0 1 .37-.59 41.41 41.41 0 0 1 -4.06-1.21 1 1 0 0 1 .26-1.88c-.51-.16-1-.33-1.48-.5a1 1 0 0 1 .5-1.87c.93.16 2.13.33 3.4.49-.64-.19-1.27-.4-1.87-.62a.93.93 0 0 1 -.6-1.16 1 1 0 0 1 1.11-.7c2.56.48 6.88.91 8.88 1 .73 0 .86-.13.86-.13a5.24 5.24 0 0 0 -1.1-.91 13.56 13.56 0 0 1 -1.14-.86 1 1 0 0 1 -.29-1.21 1 1 0 0 1 1.08-.63 23.13 23.13 0 0 1 5.51 1.8l.88.36a6.84 6.84 0 0 0 1.11.22l25.2 2.24a.5.5 0 0 1 .45.55.49.49 0 0 1 -.54.45l-25.17-2.24a7.41 7.41 0 0 1 -1.34-.28l-.94-.36a22.7 22.7 0 0 0 -5.21-1.7l-.37.47.32-.38c.32.27.71.54 1.08.81.85.6 1.34 1 1.47 1.37a1 1 0 0 1 -.14 1 1.92 1.92 0 0 1 -1.72.53c-2-.12-6.41-.56-9-1a65 65 0 0 0 8.3 2 .5.5 0 0 1 .4.39.49.49 0 0 1 -.21.51h-.17a.44.44 0 0 1 -.31.09c-2.56-.17-7.4-.7-10-1.15a71.92 71.92 0 0 0 9.33 2.3.5.5 0 0 1 .4.44.61.61 0 0 1 -.13.46.54.54 0 0 1 -.39.22c-2.17-.15-5.68-.61-8-1a65.68 65.68 0 0 0 8.82 2.14.47.47 0 0 1 .34.24.64.64 0 0 1 .06.54c-.07.15-.18.32-.34.34a15.72 15.72 0 0 1 -4.58-.37s0 .08 0 .1a77.57 77.57 0 0 0 8.35 1.89l2.83.48 28.58 3.81a6 6 0 0 0 6.75-6.78l-1-7.39a.5.5 0 0 1 1-.14l1 7.39a7 7 0 0 1 -6.92 8z"/><path d="m126.34 101.61s-1.86 1.85-.78 2.18.72-1 .72-1" fill="#fff"/><path d="m125.87 104.34a1.72 1.72 0 0 1 -.46-.07.9.9 0 0 1 -.66-.66c-.21-.81.8-1.92 1.24-2.36a.5.5 0 0 1 .7 0 .5.5 0 0 1 0 .71c-.11.11-.23.24-.33.36a.52.52 0 0 1 .41.36 1.54 1.54 0 0 1 -.23 1.4.93.93 0 0 1 -.67.26zm0-1.27a.77.77 0 0 0 -.11.31h.17s-.08-.18-.1-.31z"/><path d="m112.92 77.81s6.71 4.24 14.09 3.41l-.39-3.51z"/><path d="m107.61 40.66c15.85 5.74 19.59 17.92 19.59 17.92s3.43 7 2.9 17.7a26.15 26.15 0 0 1 -17.75 1.82s-1.91-.84-2.22-12.28" fill="#fff"/><path d="m118.81 79.35a28.9 28.9 0 0 1 -6.57-.76c-.46-.19-2.31-1.56-2.61-12.76h1c.26 9.68 1.7 11.58 1.94 11.83a26.24 26.24 0 0 0 17.05-1.66 39.05 39.05 0 0 0 -2.87-17.17c-.06-.19-3.9-12.09-19.31-17.67l.34-.94a34.89 34.89 0 0 1 16 11.28 24.25 24.25 0 0 1 3.94 7c.11.22 3.45 7.2 2.92 17.88v.27l-.24.14a24.85 24.85 0 0 1 -11.59 2.56z"/><path d="m62.94 95.84 3.38-19.4-12.77-1.19-2.37 17.04" fill="#fff"/><path d="m62.94 96.35h-.08a.5.5 0 0 1 -.41-.58l3.29-18.87-11.74-1.11-2.3 16.57a.5.5 0 0 1 -.57.43.51.51 0 0 1 -.43-.57l2.38-17a.51.51 0 0 1 .54-.43l12.77 1.19a.49.49 0 0 1 .35.19.5.5 0 0 1 .09.39l-3.4 19.37a.5.5 0 0 1 -.49.42z"/><path d="m59.55 94.38 25.21-2.24a6.84 6.84 0 0 0 1.24-.25c1.05-.4 4.24-1.9 6.25-2.11a.55.55 0 0 1 .42 1c-.85.73-2.25 1.52-2.39 2 0 0-.35.93 1.36.83 1.93-.12 6.3-.55 9-1a.47.47 0 0 1 .25.9 56.46 56.46 0 0 1 -8.38 2.13l.16.11c2.63-.17 7.46-.71 10-1.14a.47.47 0 0 1 .24.9 63.17 63.17 0 0 1 -9.39 2.38s0 .09 0 .13c2.18-.15 5.67-.61 7.93-1a.47.47 0 0 1 .25.9 60 60 0 0 1 -8.96 2.08.57.57 0 0 1 -.08.13 15.17 15.17 0 0 0 4.43-.36c.58-.11.8.87.24 1a71.88 71.88 0 0 1 -8.45 1.93l-2.82.48-28.6 3.82a6.51 6.51 0 0 1 -7.31-7.35l1-7.39" fill="#fff"/><path d="m56.58 107.59a7 7 0 0 1 -6.93-8l1-7.39a.51.51 0 0 1 .57-.42.51.51 0 0 1 .43.56l-1 7.39a6 6 0 0 0 6.75 6.78l28.6-3.8 2.81-.47a75.63 75.63 0 0 0 8.38-1.91s0-.07-.06-.1a14.53 14.53 0 0 1 -4.52.39.52.52 0 0 1 -.39-.28.51.51 0 0 1 0-.48.86.86 0 0 1 .42-.36 58.66 58.66 0 0 0 8.8-2.2 67.83 67.83 0 0 1 -8 1.1.51.51 0 0 1 -.4-.16.48.48 0 0 1 -.13-.4c0-.22.2-.52.42-.56a64.11 64.11 0 0 0 9.3-2.36c-2.63.51-7.47 1-10 1.21a.45.45 0 0 1 -.32-.09l-.16-.11a.47.47 0 0 1 -.2-.51.49.49 0 0 1 .39-.39 57 57 0 0 0 8.29-2.11 76.24 76.24 0 0 1 -9 1.11 1.91 1.91 0 0 1 -1.72-.53 1 1 0 0 1 -.14-1c.12-.39.61-.75 1.47-1.35.37-.27.76-.54 1.07-.81v-.09a22.7 22.7 0 0 0 -5.23 1.75l-.92.38a8.2 8.2 0 0 1 -1.35.28l-25.22 2.22a.49.49 0 0 1 -.54-.45.51.51 0 0 1 .45-.55l25.21-2.24a6 6 0 0 0 1.12-.23l.87-.35a23.05 23.05 0 0 1 5.49-1.77 1.06 1.06 0 0 1 1.08.63 1 1 0 0 1 -.27 1.21 13.77 13.77 0 0 1 -1.15.86 7 7 0 0 0 -1.11.89s.16.19.87.15c2-.12 6.32-.55 8.89-1a1 1 0 0 1 .51 1.86c-.6.22-1.23.43-1.88.62 1.28-.16 2.48-.33 3.4-.49a1 1 0 0 1 .5 1.87c-.47.17-1 .34-1.47.5a1 1 0 0 1 .25 1.88 40.6 40.6 0 0 1 -4.06 1.21 1.11 1.11 0 0 1 .38.59 1 1 0 0 1 -.65 1.24 72.09 72.09 0 0 1 -8.48 1.91l-2.82.48-28.62 3.82a6 6 0 0 1 -.98.07z"/><path d="m53.39 101.61s1.87 1.85.79 2.18-.73-1-.73-1" fill="#fff"/><path d="m53.86 104.34a.9.9 0 0 1 -.66-.26 1.54 1.54 0 0 1 -.23-1.4.51.51 0 0 1 .41-.36c-.11-.12-.22-.25-.34-.36a.5.5 0 1 1 .71-.71c.44.44 1.44 1.55 1.24 2.36a.94.94 0 0 1 -.67.66 1.61 1.61 0 0 1 -.46.07zm0-1.35a1 1 0 0 0 0 .3h.13a.67.67 0 0 0 -.08-.29z"/><path d="m66.82 77.81s-6.72 4.24-14.1 3.41l.39-3.51z"/><path d="m72.15 40.53c-15.85 5.74-19.62 18-19.62 18s-3.42 7-2.9 17.7a26.17 26.17 0 0 0 17.76 1.87s1.9-.84 2.21-12.28" fill="#fff"/><path d="m60.91 79.34a24.75 24.75 0 0 1 -11.53-2.62l-.23-.14v-.27c-.52-10.68 2.81-17.66 2.95-18 0 0 4-12.54 19.9-18.3l.34.94c-15.43 5.63-19.29 17.65-19.34 17.78a39.12 39.12 0 0 0 -2.88 17.27 26.22 26.22 0 0 0 17.05 1.67c.24-.25 1.67-2.15 1.93-11.83h1c-.3 11.16-2.1 12.56-2.51 12.72a29.46 29.46 0 0 1 -6.68.78z"/><path d="m85.53 27.86-1.53 10.85a5.59 5.59 0 0 0 3.82 6.14 5.34 5.34 0 0 0 2.82 0 5.58 5.58 0 0 0 4.11-6.12l-1.26-10.33a10.77 10.77 0 0 1 -7.96-.54z" fill="#fff"/><path d="m89.33 45.57a5.35 5.35 0 0 1 -1.64-.25 6.08 6.08 0 0 1 -4.17-6.68l1.61-11.55.63.33a10.3 10.3 0 0 0 7.56.51l.59-.21 1.34 11a6.06 6.06 0 0 1 -4.48 6.66 5.54 5.54 0 0 1 -1.44.19zm-3.4-17-1.42 10.21a5.08 5.08 0 0 0 3.49 5.59 4.79 4.79 0 0 0 2.55 0 5.06 5.06 0 0 0 3.73-5.57l-1.2-9.79a11.22 11.22 0 0 1 -7.15-.4z"/><path d="m93.88 32.79s-3.83.7-5.55-1.16a12.62 12.62 0 0 1 -2.41-3.74h7.55z"/><circle cx="90.18" cy="18.26" fill="#fff" r="10.67"/><path d="m90.18 29.43a11.17 11.17 0 1 1 11.16-11.17 11.18 11.18 0 0 1 -11.16 11.17zm0-21.34a10.17 10.17 0 1 0 10.16 10.17 10.18 10.18 0 0 0 -10.16-10.17z"/><path d="m83.3 13.29s-5.13-5.29-1.67-10.54 12.05 1.41 12.05 1.41.26-3.84 5.52-2.56c0 0 3.78.88.89 7.05 0 0 4.74-3.49 5.64 1.33 0 0 1 6-5.13 11.31 0 0-.38-1.65-1-1.31s-1.16 1.25-2 1.31-.65-8-.65-8z"/><path d="m95.77 7.45a.25.25 0 0 1 -.24-.17 5.85 5.85 0 0 0 -1.84-2.91.25.25 0 0 1 -.06-.37.24.24 0 0 1 .37 0 6.14 6.14 0 0 1 2 3.17.25.25 0 0 1 -.17.31z" fill="#fff"/><path d="m91.24 2.58a7.06 7.06 0 0 0 -8.62-1.79s-3.68 2.21-2.52 7.86c0 0-4.75-1.05-5.65 3.77 0 0-1 3.55 5.13 8.87 0 0 .39-1.65 1-1.31s1.15 1.25 2 1.31.64-8 .64-8"/><g fill="#fff"><path d="m98.59 10h-.1a.25.25 0 0 1 -.12-.34c1.61-3.31-.22-5.23-.3-5.31a.25.25 0 0 1 .35-.35s2.17 2.23.4 5.88a.24.24 0 0 1 -.23.12z"/><path d="m85.49 10.57c-3.68-.14-3.78-5.29-3.78-5.34a.25.25 0 0 1 .29-.23.25.25 0 0 1 .25.25s.09 4.72 3.3 4.84a.26.26 0 0 1 .24.26.25.25 0 0 1 -.3.22z"/><path d="m101.87 18.93h-.11a.25.25 0 0 1 -.11-.34c2.42-4.76 2.32-6.73 2-7.48-.15-.43-.38-.53-.39-.53a.26.26 0 0 1 -.13-.33.24.24 0 0 1 .31-.14 1.27 1.27 0 0 1 .66.77c.4 1 .36 3.19-2.06 7.94a.25.25 0 0 1 -.17.11z"/><path d="m79 18.93a.25.25 0 0 1 -.22-.13c-2.42-4.75-2.45-6.94-2.06-7.94a1.27 1.27 0 0 1 .66-.77.24.24 0 0 1 .32.15.25.25 0 0 1 -.14.32.86.86 0 0 0 -.39.53c-.27.75-.37 2.72 2 7.48a.25.25 0 0 1 -.11.34z"/><path d="m98.47 20.88s1.17-3.61 2.37-2.62c3 2.46-.92 4.64-.92 4.64"/></g><path d="m99.92 23.4a.5.5 0 0 1 -.44-.26.51.51 0 0 1 .19-.68c.47-.26 1.7-1.16 1.79-2.15a2 2 0 0 0 -.94-1.66c-.08-.08-.12-.06-.14-.06-.38.13-1.08 1.41-1.38 2.41a.5.5 0 0 1 -1-.3c.15-.46 1-2.76 2.11-3.1a1.16 1.16 0 0 1 1.06.24 2.93 2.93 0 0 1 1.29 2.53c-.15 1.72-2.2 2.89-2.29 2.94a.5.5 0 0 1 -.25.09z"/><path d="m81.71 20.88s-1.17-3.61-2.37-2.62c-3 2.46.93 4.64.93 4.64" fill="#fff"/><path d="m80.27 23.4a.54.54 0 0 1 -.25-.06c-.09-.05-2.13-1.22-2.29-2.94a3 3 0 0 1 1.27-2.53 1.17 1.17 0 0 1 1.07-.24c1.15.34 2 2.64 2.1 3.1a.51.51 0 0 1 -.32.63.5.5 0 0 1 -.63-.33c-.35-1.08-1-2.31-1.43-2.44 0 0-.06 0-.15.06a2 2 0 0 0 -.93 1.66c.09 1 1.31 1.89 1.78 2.15a.5.5 0 0 1 .19.68.49.49 0 0 1 -.41.26z"/><path d="m66.23 68.8h49a3.25 3.25 0 0 1 3.25 3.25v31.95a1.63 1.63 0 0 1 -1.63 1.63h-52.25a1.63 1.63 0 0 1 -1.6-1.63v-31.95a3.25 3.25 0 0 1 3.23-3.25z" fill="#fff"/><path d="m116.84 106.11h-52.24a2.14 2.14 0 0 1 -2.13-2.11v-31.95a3.76 3.76 0 0 1 3.76-3.75h49a3.76 3.76 0 0 1 3.77 3.75v31.95a2.14 2.14 0 0 1 -2.16 2.11zm-50.61-36.81a2.76 2.76 0 0 0 -2.76 2.75v31.95a1.14 1.14 0 0 0 1.13 1.13h52.24a1.14 1.14 0 0 0 1.16-1.13v-31.95a2.76 2.76 0 0 0 -2.76-2.75z"/><rect fill="#fff" height="4.99" rx="1.63" width="55.49" x="62.97" y="105.61"/><path d="m116.84 111.09h-52.24a2.13 2.13 0 0 1 -2.13-2.09v-1.73a2.13 2.13 0 0 1 2.13-2.12h52.24a2.13 2.13 0 0 1 2.13 2.12v1.73a2.13 2.13 0 0 1 -2.13 2.09zm-52.24-5a1.13 1.13 0 0 0 -1.13 1.12v1.79a1.13 1.13 0 0 0 1.13 1.13h52.24a1.13 1.13 0 0 0 1.16-1.13v-1.73a1.13 1.13 0 0 0 -1.13-1.12z"/><circle cx="90.72" cy="88.05" r="6.36"/><path d="m89.12 49.52a8.36 8.36 0 0 1 -6.5-2.52c-3.09-3.42-2.47-8.94-2.44-9.17a.5.5 0 1 1 1 .12c0 .05-.59 5.31 2.2 8.38a7.46 7.46 0 0 0 6 2.23 7.28 7.28 0 0 0 5.82-2.46c2.61-3.2 1.68-8.48 1.67-8.53a.5.5 0 1 1 1-.19c0 .24 1 5.8-1.87 9.36a8.29 8.29 0 0 1 -6.58 2.82z"/><path d="m107.5 133.81s24.12 5 30.12-2.37c0 0 5.5-8.88-2.75-9.38l-26.37 2.75" fill="#fff"/><path d="m123.3 136a88 88 0 0 1 -15.91-1.67l.21-1c.24.05 23.89 4.86 29.63-2.2s2.62-4.3 1.34-6.78c-.56-1.06-1.81-1.66-3.73-1.78l-26.29 2.75-.11-1 26.38-2.75c2.38.14 3.91.92 4.64 2.32 1.54 3-1.29 7.62-1.41 7.82-2.7 3.29-8.74 4.29-14.75 4.29z"/><path d="m113.07 134.74c7.51 1 20.26 1.78 24.39-3.31 0 0 5.5-8.87-2.75-9.37l-17.33 1.81c-.02.38-.5 10.2-4.31 10.87z"/><path d="m107.5 133.81-12-.51s-4.09-13.95 3.5-14.3l9.48 5.85" fill="#fff"/><path d="m107.5 134.31-12.3-.53-.11-.34c-.1-.37-2.63-9 .19-13a4.61 4.61 0 0 1 3.74-2h.16l9.61 5.94a.49.49 0 0 1 .16.68.5.5 0 0 1 -.69.17l-9.34-5.77a3.59 3.59 0 0 0 -2.85 1.54c-2.25 3.18-.57 10.2-.14 11.83l11.59.49a.5.5 0 0 1 0 1z"/><path d="m101.84 120.7s3.67 9.15-2.44 13.11l-6-.71 3.5-15.5z"/><path d="m81.32 129.88s-37.2-4.94-44.45-21.44 3.5-19.25 3.5-19.25c9-3.25 58.25 28.25 58.25 28.25s3.75 10.5-5.25 18l-45-20.75" fill="#fff"/><path d="m93.45 136-12.27-5.66a125.52 125.52 0 0 1 -19.52-4.54c-13.66-4.4-22.18-10.18-25.25-17.16-2.81-6.4-3.31-11.56-1.48-15.31a8.86 8.86 0 0 1 5.32-4.63c9.08-3.28 56.62 27 58.64 28.31l.14.1.06.16c0 .11 3.76 10.91-5.4 18.55zm-44.87-21.77 44.71 20.62a16.13 16.13 0 0 0 4.91-17.09c-1.44-.92-13.09-8.3-25.58-15.23-22.04-12.26-29.62-13.77-32.08-12.87a8 8 0 0 0 -4.72 4.12c-1.68 3.48-1.18 8.35 1.51 14.45 5.72 13 30.92 18.81 40.42 20.55l-29.59-13.64z"/><path d="m87.41 110.52s-11.51 6.35-18.15 13.8l8.56 4 12.35-16.08z"/><path d="m129.63 122.61s-10.24 7.08-20.38 7.74l-.75-5.54z"/><path d="m75 133.81c-.13 0-2.42.5-5.72.93-7.51 1-20.26 1.78-24.39-3.31 0 0-5.5-8.87 2.75-9.37l17.36 1.81 9 .94" fill="#fff"/><path d="m59 136c-6.16 0-11.9-1-14.51-4.23-.16-.25-3-4.88-1.45-7.86.73-1.41 2.26-2.19 4.56-2.33l26.4 2.74-.1 1-26.37-2.75c-1.84.12-3.1.72-3.65 1.79-1.29 2.48 1.35 6.78 1.37 6.82 4 4.87 16.68 4 23.9 3.08 3.12-.41 5.43-.87 5.68-.92l.22 1s-2.3.49-5.77.94a82.46 82.46 0 0 1 -10.28.72z"/><path d="m75 133.81 12-.51s4.13-14-3.47-14.34l-9.53 5.85s-.13.34-.29.9" fill="#fff"/><path d="m75 134.31a.5.5 0 0 1 0-1l11.59-.49c.43-1.63 2.1-8.65-.14-11.83a3.59 3.59 0 0 0 -2.83-1.52l-9.19 5.68c-.05.14-.13.38-.22.69a.5.5 0 1 1 -1-.27 8.51 8.51 0 0 1 .31-.95l.06-.15 9.75-6h.15a4.6 4.6 0 0 1 3.74 2c2.82 4 .3 12.65.19 13l-.1.34z"/><path d="m80.93 120.52s-2.45 8.5 2.16 12.58l5.86-.5-2.84-15z"/><path d="m134.11 114.69-45 20.75c-9-7.5-5.25-18-5.25-18s49.25-31.5 58.25-28.25c0 0 10.75 2.75 3.5 19.25s-44.44 21.44-44.44 21.44" fill="#fff"/><path d="m89 136-.25-.2c-9.16-7.64-5.43-18.44-5.4-18.55l.06-.16.15-.1c2-1.29 49.56-31.59 58.68-28.29a8.78 8.78 0 0 1 5.27 4.61c1.83 3.75 1.34 8.91-1.48 15.31-3.06 7-11.56 12.76-25.24 17.18a125.52 125.52 0 0 1 -19.52 4.54zm-4.76-18.26a16.17 16.17 0 0 0 4.92 17.09l44.71-20.62.41.91-29.58 13.64c9.5-1.74 34.69-7.52 40.42-20.55 2.68-6.1 3.19-11 1.5-14.45a8 8 0 0 0 -4.62-4.09c-2.51-.91-10.08.6-32.13 12.86-12.5 6.94-24.15 14.32-25.59 15.23z"/><path d="m130.32 116.44-16.72 10.93-10.71 1.71z"/><path d="m69.26 134.74c-7.51 1-20.26 1.78-24.39-3.31 0 0-5.5-8.87 2.75-9.37l17.38 1.81c0 .38.45 10.2 4.26 10.87z"/><path d="m194.06 108.76c-3.58 0-8.58-1.22-12.87-6.77-.11-.15-2.33-3.32-1.64-6.27s7.65-3.14 8.44-3.14c.07 0 9.91-.07 10.6 13.39a2.51 2.51 0 0 1 -2.12 2.61 16.72 16.72 0 0 1 -2.41.18zm-6.06-15.18c-2.68 0-7.07.65-7.47 2.37-.59 2.5 1.44 5.41 1.46 5.44 5.07 6.55 11.15 6.69 14.33 6.2a1.5 1.5 0 0 0 1.27-1.56c-.59-12.17-8.8-12.45-9.59-12.45z"/><path d="m197.56 106.87a59.65 59.65 0 0 0 -4.55-4.16 46.12 46.12 0 0 0 -5-3.62 20.7 20.7 0 0 0 -5.51-2.5 6.1 6.1 0 0 0 -5.5.78.51.51 0 0 1 -.71-.06.52.52 0 0 1 .07-.71 6 6 0 0 1 3.11-1.13 9.24 9.24 0 0 1 3.2.42 21 21 0 0 1 5.58 2.8 46.53 46.53 0 0 1 4.87 3.85 58.13 58.13 0 0 1 4.44 4.33z"/><path d="m166.93 101.51a12.47 12.47 0 0 1 -9.06-3.77 2.5 2.5 0 0 1 -.07-3.44c7.22-7.8 13.3-2.82 13.36-2.77.49.4 4.85 4 3.72 6.37s-4.12 3.12-4.25 3.15a15.84 15.84 0 0 1 -3.7.46zm-8.34-4.51c1.73 1.77 5.56 4.52 11.79 3 0 0 2.72-.78 3.6-2.61.6-1.25-1.81-3.83-3.46-5.17-.23-.19-5.43-4.4-12 2.68a1.48 1.48 0 0 0 .05 2.06z"/><path d="m157.82 95.72a44.37 44.37 0 0 1 10-.5 17.11 17.11 0 0 1 5 1 7.6 7.6 0 0 1 2.18 1.42 5 5 0 0 1 1.42 2.33.5.5 0 1 1 -1 .25 4.87 4.87 0 0 0 -3-3.24 16.53 16.53 0 0 0 -4.71-1.24 44 44 0 0 0 -9.89-.02z"/><path d="m183.39 93.59a13.9 13.9 0 0 1 -2.89-.31c-.13 0-2.78-.74-3.76-2.66s2.67-5.25 3.09-5.61c0 0 5.08-4.36 11.35 1.91a2.48 2.48 0 0 1 0 3.49 10.83 10.83 0 0 1 -7.79 3.18zm.79-9.09a5.86 5.86 0 0 0 -3.69 1.27c-1.48 1.25-3.34 3.44-2.85 4.4.77 1.51 3.07 2.13 3.09 2.13a10.13 10.13 0 0 0 9.74-2.6 1.47 1.47 0 0 0 0-2.07c-2.42-2.43-4.6-3.13-6.29-3.13z"/><path d="m191.35 88.41a37.55 37.55 0 0 0 -8.48.21 14 14 0 0 0 -4 1.17 4.06 4.06 0 0 0 -2.45 2.79.5.5 0 0 1 -1-.16 4.23 4.23 0 0 1 1.2-2.05 6.4 6.4 0 0 1 1.92-1.21 14.68 14.68 0 0 1 4.24-1 37.51 37.51 0 0 1 8.57.25z"/><path d="m162.15 85.94a15.18 15.18 0 0 1 -9.09-3 2.49 2.49 0 0 1 -.66-3.29c6.9-11.65 15.6-6.98 15.6-6.93.68.36 6.77 3.68 6 6.71s-4.21 4.7-4.35 4.77a18.19 18.19 0 0 1 -7.5 1.74zm-8.5-3.84c2.58 1.92 8 4.63 15.58 1.2 0 0 3.17-1.63 3.82-4.12.44-1.71-3.13-4.33-5.49-5.58-.33-.18-7.92-4.22-14.31 6.52a1.52 1.52 0 0 0 .4 2z"/><path d="m152.89 80.88a57.54 57.54 0 0 1 5.91-1.8 45.13 45.13 0 0 1 6.1-1.08 20.81 20.81 0 0 1 6.25.12 9.15 9.15 0 0 1 3 1.13 5.94 5.94 0 0 1 2.23 2.45.5.5 0 1 1 -.9.43 6.12 6.12 0 0 0 -4.5-3.27 20.71 20.71 0 0 0 -6.05-.36 48.11 48.11 0 0 0 -6.08.87 58.85 58.85 0 0 0 -5.96 1.51z"/><path d="m176.27 71.37c-1.11 0-3.79-.22-5.32-2.23-1.41-1.85-1.43-4.67-.06-8.39.18-.36 3.9-7.36 9.29-9.92a2.39 2.39 0 0 1 2 0c2.05.88 6.53 4 3.89 14.17 0 .07-1.72 5.79-9.28 6.38zm4.91-19.76a1.25 1.25 0 0 0 -.57.13c-5.1 2.41-8.77 9.34-8.81 9.41-1.22 3.32-1.25 5.82-.06 7.38 1.59 2.08 4.9 1.83 4.93 1.83 6.85-.53 8.34-5.43 8.4-5.64 2.44-9.39-1.51-12.21-3.32-13a1.46 1.46 0 0 0 -.57-.11z"/><path d="m180.28 53.58a42.21 42.21 0 0 0 -1.65 5.52c-.44 1.87-.78 3.76-1.06 5.66s-.47 3.81-.58 5.72-.17 3.83-.18 5.74a.5.5 0 1 1 -1 0c.09-1.93.21-3.86.43-5.79s.5-3.83.84-5.73.79-3.78 1.31-5.64a42.93 42.93 0 0 1 1.89-5.48z"/><path d="m181.87 83.91a16.09 16.09 0 0 1 -3.7-.38.5.5 0 0 1 -.37-.42.49.49 0 0 1 .25-.5l17.07-9.61a.5.5 0 0 1 .5 0 .5.5 0 0 1 .25.43 10 10 0 0 1 -6.17 8.9 20.18 20.18 0 0 1 -7.83 1.58zm-2.09-1.13a19.27 19.27 0 0 0 9.53-1.37 8.89 8.89 0 0 0 5.48-7.08z"/><path d="m176.31 84.69a.51.51 0 0 1 -.44-.26.51.51 0 0 1 .19-.68l3.61-2a.5.5 0 1 1 .5.86l-3.61 2.06a.47.47 0 0 1 -.25.02z"/><path d="m173.17 90.4a10.28 10.28 0 0 1 -4-.81 5.13 5.13 0 0 1 -3.17-4.67.47.47 0 0 1 .25-.42.48.48 0 0 1 .49 0l8.51 4.78a.53.53 0 0 1 .25.5.5.5 0 0 1 -.37.42 8 8 0 0 1 -1.96.2zm-6.09-4.54a4.11 4.11 0 0 0 2.48 2.81 9.2 9.2 0 0 0 3.8.72z"/><path d="m175.94 90.79a.47.47 0 0 1 -.25-.07l-1.79-1a.51.51 0 0 1 -.19-.69.49.49 0 0 1 .68-.18l1.8 1a.51.51 0 0 1 .19.68.5.5 0 0 1 -.44.26z"/><path d="m177.06 109.85-.52-38.53-1.54 38.58"/><path d="m175.5 109.92-1-.04 1.54-38.58.99.01.53 38.53-1 .02-.27-19.81z"/><path d="m184 135.18h-14.59a5.51 5.51 0 0 1 -5.5-5.5v-19.78a.51.51 0 0 1 .5-.5h24.59a.5.5 0 0 1 .5.5v19.78a5.5 5.5 0 0 1 -5.5 5.5zm-19.09-24.78v19.28a4.51 4.51 0 0 0 4.5 4.5h14.59a4.5 4.5 0 0 0 4.5-4.5v-19.28z"/><path d="m14 79.58a6.63 6.63 0 0 0 -6.07-5.18c-2.93-.1-5.64 2.08-6.93 4.6-.78 1.48-2 5.23.4 5.93s3-2.69 3.92-4.09a4.92 4.92 0 0 1 3.54-2.26 4.21 4.21 0 0 1 2.16.33 6.26 6.26 0 0 1 1.85 1.47c.56.58 1.45-.31.88-.88a6.63 6.63 0 0 0 -3-2 5.56 5.56 0 0 0 -3.42.2 6.26 6.26 0 0 0 -2.75 2 13 13 0 0 0 -1.28 2.49c-.24.5-.84 1.87-1.62 1.48s-.38-1.67-.26-2.28a7.63 7.63 0 0 1 4.75-5.48 5.28 5.28 0 0 1 6.67 4c.16.79 1.37.46 1.2-.33z"/><path d="m17.11 118.16h-.05a.51.51 0 0 1 -.45-.55c.78-8.2-1.42-22.6-2.72-31.2-.34-2.18-.62-4.06-.79-5.36a3.4 3.4 0 0 0 -.93-2 .5.5 0 0 1 0-.71.51.51 0 0 1 .71 0 4.34 4.34 0 0 1 1.21 2.55c.17 1.29.45 3.17.78 5.34 1.32 8.65 3.52 23.12 2.74 31.45a.5.5 0 0 1 -.5.48z"/><path d="m22.18 74.91a5.31 5.31 0 0 1 5.82-4.21 7.39 7.39 0 0 1 5.47 5.13 3.89 3.89 0 0 1 .15 2.58c-.42.87-1.25-.06-1.52-.52-.47-.79-.72-1.67-1.16-2.46a6.26 6.26 0 0 0 -2.52-2.43 5.88 5.88 0 0 0 -3.68-.62 6.39 6.39 0 0 0 -3.47 2.11.62.62 0 0 0 .88.88 4.85 4.85 0 0 1 3.54-1.82 4.83 4.83 0 0 1 3.39 1.49 10.52 10.52 0 0 1 1.63 2.96c.43.88 1.09 1.89 2.17 2 2.7.28 2.19-3.45 1.6-5a8.53 8.53 0 0 0 -6.34-5.53 6.55 6.55 0 0 0 -7.14 5.11c-.17.78 1 1.12 1.2.33z"/><path d="m20.91 118.16a.5.5 0 0 1 -.5-.45c-1-10.57-.27-35.63.51-41.79a4.41 4.41 0 0 1 1.22-2.55.5.5 0 1 1 .71.71 3.29 3.29 0 0 0 -.93 2c-.78 6.12-1.5 31.05-.51 41.56a.51.51 0 0 1 -.45.55z"/><path d="m19.29 118.16h-.05a.5.5 0 0 1 -.45-.55c1-10.14-1.65-40.79-2.51-47.56a3.4 3.4 0 0 0 -.93-2 .5.5 0 0 1 0-.71.51.51 0 0 1 .71 0 4.43 4.43 0 0 1 1.21 2.55c.86 6.79 3.48 37.57 2.51 47.79a.49.49 0 0 1 -.49.48z"/><path d="m17.93 84.88a.51.51 0 0 1 -.49-.41 83.65 83.65 0 0 0 -3-9.62.5.5 0 0 1 .94-.35 84 84 0 0 1 3 9.79.5.5 0 0 1 -.41.58z"/><path d="m15.58 76.89a.49.49 0 0 1 -.48-.38c0-.21-1.28-5.14-6.17-4.72-2.78.24-4.71-.12-5.74-1.06a2.15 2.15 0 0 1 -.75-1.55 2.35 2.35 0 0 1 .76-1.76c1-1 3-1.35 6-1.17 6.41.41 6.88 9.72 6.9 10.12a.48.48 0 0 1 -.43.51zm-6.06-6.13a6.17 6.17 0 0 1 5.06 2.53c-.66-2.57-2.14-5.83-5.47-6s-4.66.37-5.22.9a1.33 1.33 0 0 0 -.45 1 1.14 1.14 0 0 0 .42.81c.57.52 1.88 1.07 5 .8z"/><path d="m16.78 70s-6.61-4.58-4-5.54 4.43 3.09 4 5.54z"/><path d="m16.78 70.48a.52.52 0 0 1 -.29-.09c-1.18-.82-5-3.64-4.81-5.38a1.25 1.25 0 0 1 .92-1 2.67 2.67 0 0 1 2.76.53 6.52 6.52 0 0 1 1.91 5.57.53.53 0 0 1 -.3.38.63.63 0 0 1 -.19-.01zm-3.23-5.69a1.61 1.61 0 0 0 -.6.12c-.27.09-.28.19-.28.23-.09.7 1.72 2.46 3.67 3.91a5.55 5.55 0 0 0 -1.62-3.79 1.82 1.82 0 0 0 -1.17-.47z"/><path d="m19.09 98.89s1.1-4.64 3.38-3.5-3.38 3.5-3.38 3.5z"/><path d="m19.09 99.39a.5.5 0 0 1 -.48-.62c.07-.32.78-3.14 2.36-3.88a1.9 1.9 0 0 1 1.72 0 1.22 1.22 0 0 1 .82 1.14c-.05 1.42-3.25 2.86-4.22 3.27a.48.48 0 0 1 -.2.09zm2.67-3.68a1 1 0 0 0 -.37.08 4.08 4.08 0 0 0 -1.49 2.21c1.46-.72 2.6-1.54 2.61-1.92 0 0-.07-.12-.27-.21a1 1 0 0 0 -.48-.16z"/><path d="m24.8 96.08a1.52 1.52 0 0 1 -.6-.11c-.82-.32-1.37-1.25-1.68-2.85-.51-2.58-1.75-2.38-1.81-2.37a.52.52 0 0 1 -.53-.25.5.5 0 0 1 .05-.57 4.5 4.5 0 0 1 3.21-1.58 3.12 3.12 0 0 1 2.38 1.65c1.81 2.82 1.89 4.45.28 5.62a2.19 2.19 0 0 1 -1.3.46zm-3.1-6.08a1.49 1.49 0 0 1 .24.14 4.16 4.16 0 0 1 1.56 2.84c.31 1.6.8 2 1.06 2.11a1.06 1.06 0 0 0 1-.24c.6-.43 1.51-1.09-.53-4.27a2.17 2.17 0 0 0 -1.61-1.18 2.61 2.61 0 0 0 -1.72.6z"/><path d="m20.88 83.75a.51.51 0 0 1 -.5-.49l-.46-20.93a.51.51 0 0 1 .49-.51.49.49 0 0 1 .51.49l.46 20.93a.5.5 0 0 1 -.49.51z"/><path d="m20.36 64.15c-1.93-3.45-9.53-.15-10.47-1.53-1.9-2.74 2.4-2.77 3.69-2.72a14.38 14.38 0 0 1 5.67 1.5 9.73 9.73 0 0 0 -4.73-2.8c-1.29-.35-5.56-.85-5.67-2.67-.29-4.11 9.35 1.42 10.58 2.76-.64-1.64-4.85-9.32-1.45-10.57 2.8-.95 1.51 7.52 2.62 8.8.94-1.59 2-4.71 3.34-6.13 2.87-3.13 5.44-2.14 3.39.22-1.82 2.11-4.68 5-5.27 8.26 1.58-1.13 2.69-2.49 4.39-3.26 1-.53 5.62-2.2 5.56 0-.18 2.7-8.25 3.1-9.83 5.11 1.4.69 3.62-.55 5.38-.27 1.7.11 4.5 1.51 1.81 2.81-2.57 1.07-6.9-2.25-9 .52"/><path d="m15.82 93.31c-2.15-1.47-5.68 2.69-6.62 2.17-1.93-1.06.6-2.34 1.37-2.69a9.6 9.6 0 0 1 3.79-.79 6.47 6.47 0 0 0 -3.61-.26c-.87.17-3.53 1.13-4.14.09-1.37-2.34 5.94-1.91 7.06-1.48-.86-.78-5.59-4.07-4-5.81 1.38-1.39 3.1 4 4.13 4.42.09-1.21-.17-3.38.18-4.59.77-2.69 2.58-2.86 2.06-.87-.46 1.78-1.29 4.34-.69 6.42a19.34 19.34 0 0 1 1.65-3.2c.43-.61 2.67-3 3.27-1.65.69 1.65-4 4.25-4.3 5.9 1 0 2-1.39 3.1-1.74s3.09-.43 1.89 1.13c-1.21 1.39-4.73.7-5.17 3"/><path d="m21 81.84c-.39-2.58-5.84-2.32-6.1-3.37-.54-2.13 2.12-1.16 2.9-.83a9.72 9.72 0 0 1 3.2 2.24 6.46 6.46 0 0 0 -2.28-2.82c-.71-.51-3.23-1.81-2.88-3 .77-2.61 5.45 3 5.89 4.15 0-1.16-.83-6.87 1.55-6.86 2 .07-.8 5-.42 6 1-.76 2.36-2.43 3.48-3 2.5-1.26 3.86-.06 2.05.92-1.62.88-4.06 2-5.17 3.88a19.12 19.12 0 0 1 3.47-1c.73-.09 4 0 3.43 1.27-.73 1.63-5.81 0-7.25.88.71.75 2.37.5 3.39 1.08s2.43 2 .46 2.16-3.72-2.92-5.72-1.7"/><path d="m19.51 135.18c-8.62 0-13.57-3.85-13.57-10.57v-4.07a2.51 2.51 0 0 1 2.5-2.5h22.14a2.51 2.51 0 0 1 2.5 2.5v4.07c0 6.72-4.95 10.57-13.57 10.57zm-11.07-16.18a1.5 1.5 0 0 0 -1.5 1.5v4.07c0 3.58 1.63 9.57 12.57 9.57s12.57-6 12.57-9.57v-4.07a1.5 1.5 0 0 0 -1.5-1.5z"/><path d="m195.09 135.47h-194.43" fill="#fff"/><path d="m195.09 136h-194.43a.5.5 0 1 1 0-1h194.43a.5.5 0 0 1 0 1z"/></svg>